%FSLAX44Y44*%
%MOMM*%
G71*
G01*
G75*
%ADD10R,0.6000X0.9000*%
%ADD11R,0.9000X0.6000*%
%ADD12R,1.3000X0.7000*%
%ADD13R,1.6800X1.5200*%
%ADD14R,2.0000X1.2000*%
%ADD15R,5.6000X5.6000*%
%ADD16R,5.5000X2.0000*%
%ADD17O,0.3000X1.5000*%
%ADD18R,0.3000X1.5000*%
%ADD19R,1.5000X0.3000*%
%ADD20C,0.2000*%
%ADD21C,1.0000*%
%ADD22C,1.5000*%
%ADD23R,1.5000X1.5000*%
%ADD24O,0.7500X0.7000*%
%ADD25C,2.0000*%
%ADD26C,0.7000*%
%ADD27R,0.4000X1.4000*%
%ADD28R,0.8032X1.1032*%
%ADD29R,1.1032X0.8032*%
%ADD30R,1.5032X0.9032*%
%ADD31R,1.8832X1.7232*%
%ADD32R,2.2032X1.4032*%
%ADD33R,5.8032X5.8032*%
%ADD34R,5.7032X2.2032*%
%ADD35O,0.5032X1.7032*%
%ADD36R,0.5032X1.7032*%
%ADD37R,1.7032X0.5032*%
%ADD38C,1.7032*%
%ADD39R,1.7032X1.7032*%
%ADD40O,0.9532X0.9032*%
%ADD41C,2.2032*%
%ADD42C,0.9032*%
%ADD43C,0.0667*%
%ADD44C,0.3810*%
%ADD45C,0.2540*%
%ADD46C,0.4064*%
%ADD47C,0.1524*%
%ADD48C,0.1000*%
D48*
X342500Y110000D02*
X352500D01*
X347500Y105000D02*
Y115000D01*
X377500Y60000D02*
X387500D01*
X382500Y55000D02*
Y65000D01*
X236500Y110000D02*
X246500D01*
X241500Y105000D02*
Y115000D01*
X271500Y60000D02*
X281500D01*
X276500Y55000D02*
Y65000D01*
X58250Y118000D02*
X67250D01*
X62750Y113500D02*
Y122500D01*
X84000Y118000D02*
X93000D01*
X88500Y113500D02*
Y122500D01*
X109500Y118000D02*
X118500D01*
X114000Y113500D02*
Y122500D01*
X96750Y92500D02*
X105750D01*
X101250Y88000D02*
Y97000D01*
X45500Y92500D02*
X54500D01*
X50000Y88000D02*
Y97000D01*
X71000Y92500D02*
X80000D01*
X75500Y88000D02*
Y97000D01*
X14750Y29000D02*
X47250D01*
X31000Y12750D02*
Y45250D01*
X116750Y29000D02*
X149250D01*
X133000Y12750D02*
Y45250D01*
X158000Y447000D02*
X170000D01*
X164000Y441000D02*
Y453000D01*
X258000Y447000D02*
X270000D01*
X264000Y441000D02*
Y453000D01*
X208000Y447000D02*
X220000D01*
X214000Y441000D02*
Y453000D01*
X346000Y66500D02*
X349000D01*
X347500Y65000D02*
Y68000D01*
X346000Y78000D02*
X349000D01*
X347500Y76500D02*
Y79500D01*
X346000Y90000D02*
X349000D01*
X347500Y88500D02*
Y91500D01*
X240000Y65500D02*
X243000D01*
X241500Y64000D02*
Y67000D01*
X240000Y78000D02*
X243000D01*
X241500Y76500D02*
Y79500D01*
X240000Y90000D02*
X243000D01*
X241500Y88500D02*
Y91500D01*
X214500Y205000D02*
X217500D01*
X216000Y203500D02*
Y206500D01*
X214500Y219000D02*
X217500D01*
X216000Y217500D02*
Y220500D01*
X214500Y180000D02*
X217500D01*
X216000Y178500D02*
Y181500D01*
X264500Y249000D02*
X267500D01*
X266000Y247500D02*
Y250500D01*
X318500Y249000D02*
X321500D01*
X320000Y247500D02*
Y250500D01*
X280500Y249000D02*
X283500D01*
X282000Y247500D02*
Y250500D01*
X11500Y198000D02*
X14500D01*
X13000Y196500D02*
Y199500D01*
X47500Y334600D02*
X50500D01*
X49000Y333101D02*
Y336101D01*
X11500Y272000D02*
X14500D01*
X13000Y270500D02*
Y273500D01*
X51500Y474000D02*
X54500D01*
X53000Y472500D02*
Y475500D01*
X108500Y474000D02*
X111500D01*
X110000Y472500D02*
Y475500D01*
X364500Y474000D02*
X367500D01*
X366000Y472500D02*
Y475500D01*
X311500Y473000D02*
X314500D01*
X313000Y471500D02*
Y474500D01*
X162500Y472000D02*
X165500D01*
X164000Y470500D02*
Y473500D01*
X142500Y203000D02*
X145500D01*
X144000Y201500D02*
Y204500D01*
X151500Y194000D02*
X154500D01*
X153000Y192500D02*
Y195500D01*
X363500Y330000D02*
X366500D01*
X365000Y328500D02*
Y331500D01*
X45500Y153000D02*
X48500D01*
X47000Y151500D02*
Y154500D01*
M02*
