%FSLAX44Y44*%
%MOMM*%
G71*
G01*
G75*
G04 Layer_Color=8388736*
%ADD10R,1.5000X0.3000*%
%ADD11R,0.3000X1.5000*%
%ADD12O,0.3000X1.5000*%
%ADD13R,1.3000X0.7000*%
%ADD14R,0.9000X0.6000*%
%ADD15R,5.5000X2.0000*%
%ADD16R,2.0000X1.2000*%
%ADD17R,5.6000X5.6000*%
%ADD18R,0.6000X0.9000*%
%ADD19R,1.6800X1.5200*%
%ADD20C,0.2000*%
%ADD21C,2.0000*%
%ADD22O,0.7500X0.7000*%
%ADD23C,1.5000*%
%ADD24R,1.5000X1.5000*%
%ADD25C,0.7000*%
%ADD26R,0.4000X1.4000*%
%ADD27R,1.7032X0.5032*%
%ADD28R,0.5032X1.7032*%
%ADD29O,0.5032X1.7032*%
%ADD30R,1.5032X0.9032*%
%ADD31R,1.1032X0.8032*%
%ADD32R,5.7032X2.2032*%
%ADD33R,2.2032X1.4032*%
%ADD34R,5.8032X5.8032*%
%ADD35R,0.8032X1.1032*%
%ADD36R,1.8832X1.7232*%
%ADD37C,2.2032*%
%ADD38O,0.9532X0.9032*%
%ADD39C,1.7032*%
%ADD40R,1.7032X1.7032*%
%ADD41C,0.9032*%
D27*
X60000Y193000D02*
D03*
Y198000D02*
D03*
Y203000D02*
D03*
Y208000D02*
D03*
Y213000D02*
D03*
Y218000D02*
D03*
Y223000D02*
D03*
Y228000D02*
D03*
Y233000D02*
D03*
Y238000D02*
D03*
Y243000D02*
D03*
Y248000D02*
D03*
Y253000D02*
D03*
Y258000D02*
D03*
Y263000D02*
D03*
Y268000D02*
D03*
X175000D02*
D03*
Y263000D02*
D03*
Y258000D02*
D03*
Y253000D02*
D03*
Y248000D02*
D03*
Y243000D02*
D03*
Y238000D02*
D03*
Y233000D02*
D03*
Y228000D02*
D03*
Y223000D02*
D03*
Y218000D02*
D03*
Y213000D02*
D03*
Y208000D02*
D03*
Y203000D02*
D03*
Y198000D02*
D03*
Y193000D02*
D03*
D28*
X80000Y288000D02*
D03*
X85000D02*
D03*
X90000D02*
D03*
X95000D02*
D03*
X100000D02*
D03*
X105000D02*
D03*
X110000D02*
D03*
X115000D02*
D03*
X120000D02*
D03*
X125000D02*
D03*
X130000D02*
D03*
X135000D02*
D03*
X140000D02*
D03*
X145000D02*
D03*
X150000D02*
D03*
X155000D02*
D03*
Y173000D02*
D03*
X150000D02*
D03*
X145000D02*
D03*
X140000D02*
D03*
X135000D02*
D03*
X130000D02*
D03*
X125000D02*
D03*
X120000D02*
D03*
X115000D02*
D03*
X110000D02*
D03*
X105000D02*
D03*
X100000D02*
D03*
X95000D02*
D03*
X90000D02*
D03*
X85000D02*
D03*
D29*
X80000D02*
D03*
D30*
X29000Y467000D02*
D03*
Y448000D02*
D03*
X80000Y467000D02*
D03*
Y448000D02*
D03*
X348000Y467000D02*
D03*
Y448000D02*
D03*
X394000Y466000D02*
D03*
Y447000D02*
D03*
X338000Y267000D02*
D03*
Y248000D02*
D03*
X381000Y311000D02*
D03*
Y330000D02*
D03*
X13000Y236000D02*
D03*
Y255000D02*
D03*
X334000Y209000D02*
D03*
Y190000D02*
D03*
X237000Y180000D02*
D03*
Y199000D02*
D03*
D31*
X29000Y415000D02*
D03*
Y430000D02*
D03*
X80000Y415000D02*
D03*
Y430000D02*
D03*
X394000Y415000D02*
D03*
Y430000D02*
D03*
X348000Y415000D02*
D03*
Y430000D02*
D03*
X36000Y238000D02*
D03*
Y253000D02*
D03*
Y221000D02*
D03*
Y206000D02*
D03*
X198000Y264000D02*
D03*
Y249000D02*
D03*
X199000Y197000D02*
D03*
Y212000D02*
D03*
X237000Y214000D02*
D03*
Y229000D02*
D03*
X247000Y264000D02*
D03*
Y249000D02*
D03*
X298000Y264000D02*
D03*
Y249000D02*
D03*
D32*
X75000Y350000D02*
D03*
X170000D02*
D03*
D33*
X343000Y298000D02*
D03*
Y342000D02*
D03*
D34*
X271000Y320000D02*
D03*
D35*
X63000Y147000D02*
D03*
X78000D02*
D03*
X130000Y150000D02*
D03*
X115000D02*
D03*
X264000Y264000D02*
D03*
X279000D02*
D03*
X89000Y318000D02*
D03*
X104000D02*
D03*
X142000D02*
D03*
X127000D02*
D03*
X216000D02*
D03*
X201000D02*
D03*
X216000Y300000D02*
D03*
X201000D02*
D03*
D36*
X277000Y213000D02*
D03*
Y180000D02*
D03*
X381000Y213000D02*
D03*
Y180000D02*
D03*
D37*
X214000Y449000D02*
D03*
X264000D02*
D03*
X164000D02*
D03*
D38*
X133000Y29000D02*
D03*
X31000D02*
D03*
D39*
X75500Y92500D02*
D03*
X50000D02*
D03*
X101250D02*
D03*
X114000Y118000D02*
D03*
X88500D02*
D03*
X62750D02*
D03*
X241500Y110000D02*
D03*
X347500D02*
D03*
D40*
X276500Y60000D02*
D03*
X382500D02*
D03*
D41*
X230000Y263000D02*
D03*
X114000Y318000D02*
D03*
X60000Y302000D02*
D03*
X277000Y166000D02*
D03*
X90000Y269000D02*
D03*
X78000Y268000D02*
D03*
X44000Y263000D02*
D03*
X78000Y258000D02*
D03*
X29000Y406000D02*
D03*
X80000D02*
D03*
X348000Y405000D02*
D03*
X394000D02*
D03*
X230000Y330000D02*
D03*
Y355000D02*
D03*
X145000Y192000D02*
D03*
X189000Y203000D02*
D03*
X36000Y196000D02*
D03*
X26000Y255000D02*
D03*
X150000Y159000D02*
D03*
X155000Y192000D02*
D03*
X98000Y140000D02*
D03*
X113000Y102000D02*
D03*
X135000Y208000D02*
D03*
M02*
