%FSLAX44Y44*%
%MOMM*%
G71*
G01*
G75*
%ADD10R,1.5000X0.3000*%
%ADD11R,0.3000X1.5000*%
%ADD12O,0.3000X1.5000*%
%ADD13R,1.3000X0.7000*%
%ADD14R,0.9000X0.6000*%
%ADD15R,5.5000X2.0000*%
%ADD16R,2.0000X1.2000*%
%ADD17R,5.6000X5.6000*%
%ADD18R,0.6000X0.9000*%
%ADD19R,1.6800X1.5200*%
%ADD20C,0.2000*%
%ADD21C,2.0000*%
%ADD22O,0.7500X0.7000*%
%ADD23C,1.5000*%
%ADD24R,1.5000X1.5000*%
%ADD25C,0.7000*%
%ADD26R,0.4000X1.4000*%
%ADD27R,1.7032X0.5032*%
%ADD28R,0.5032X1.7032*%
%ADD29O,0.5032X1.7032*%
%ADD30R,1.5032X0.9032*%
%ADD31R,1.1032X0.8032*%
%ADD32R,5.7032X2.2032*%
%ADD33R,2.2032X1.4032*%
%ADD34R,5.8032X5.8032*%
%ADD35R,0.8032X1.1032*%
%ADD36R,1.8832X1.7232*%
%ADD37C,2.2032*%
%ADD38O,0.9532X0.9032*%
%ADD39C,1.7032*%
%ADD40R,1.7032X1.7032*%
%ADD41C,0.9032*%
%ADD42C,0.0667*%
%ADD43C,0.3810*%
%ADD44C,0.2540*%
%ADD45C,0.4064*%
%ADD46C,0.1524*%
%ADD47C,0.1000*%
D47*
X208000Y449000D02*
X220000D01*
X214000Y443000D02*
Y455000D01*
X258000Y449000D02*
X270000D01*
X264000Y443000D02*
Y455000D01*
X158000Y449000D02*
X170000D01*
X164000Y443000D02*
Y455000D01*
X116750Y29000D02*
X149250D01*
X133000Y12750D02*
Y45250D01*
X14750Y29000D02*
X47250D01*
X31000Y12750D02*
Y45250D01*
X71000Y92500D02*
X80000D01*
X75500Y88000D02*
Y97000D01*
X45500Y92500D02*
X54500D01*
X50000Y88000D02*
Y97000D01*
X96750Y92500D02*
X105750D01*
X101250Y88000D02*
Y97000D01*
X109500Y118000D02*
X118500D01*
X114000Y113500D02*
Y122500D01*
X84000Y118000D02*
X93000D01*
X88500Y113500D02*
Y122500D01*
X58250Y118000D02*
X67250D01*
X62750Y113500D02*
Y122500D01*
X271500Y60000D02*
X281500D01*
X276500Y55000D02*
Y65000D01*
X236500Y110000D02*
X246500D01*
X241500Y105000D02*
Y115000D01*
X377500Y60000D02*
X387500D01*
X382500Y55000D02*
Y65000D01*
X342500Y110000D02*
X352500D01*
X347500Y105000D02*
Y115000D01*
X228500Y263000D02*
X231500D01*
X230000Y261500D02*
Y264500D01*
X112500Y318000D02*
X115500D01*
X114000Y316500D02*
Y319500D01*
X58500Y302000D02*
X61500D01*
X60000Y300500D02*
Y303500D01*
X275500Y166000D02*
X278500D01*
X277000Y164500D02*
Y167500D01*
X88500Y269000D02*
X91500D01*
X90000Y267500D02*
Y270500D01*
X76500Y268000D02*
X79500D01*
X78000Y266500D02*
Y269500D01*
X42500Y263000D02*
X45500D01*
X44000Y261500D02*
Y264500D01*
X76500Y258000D02*
X79500D01*
X78000Y256500D02*
Y259500D01*
X27500Y406000D02*
X30500D01*
X29000Y404500D02*
Y407500D01*
X78500Y406000D02*
X81500D01*
X80000Y404500D02*
Y407500D01*
X346500Y405000D02*
X349500D01*
X348000Y403500D02*
Y406500D01*
X392500Y405000D02*
X395500D01*
X394000Y403500D02*
Y406500D01*
X228500Y330000D02*
X231500D01*
X230000Y328500D02*
Y331500D01*
X228500Y355000D02*
X231500D01*
X230000Y353500D02*
Y356500D01*
X143500Y192000D02*
X146500D01*
X145000Y190500D02*
Y193500D01*
X187500Y203000D02*
X190500D01*
X189000Y201500D02*
Y204500D01*
X34500Y196000D02*
X37500D01*
X36000Y194500D02*
Y197500D01*
X24500Y255000D02*
X27500D01*
X26000Y253500D02*
Y256500D01*
X148500Y159000D02*
X151500D01*
X150000Y157500D02*
Y160500D01*
X153500Y192000D02*
X156500D01*
X155000Y190500D02*
Y193500D01*
X96500Y140000D02*
X99500D01*
X98000Y138500D02*
Y141500D01*
X111500Y102000D02*
X114500D01*
X113000Y100500D02*
Y103500D01*
X133500Y208000D02*
X136500D01*
X135000Y206500D02*
Y209500D01*
M02*
