%FSLAX44Y44*%
%MOMM*%
G71*
G01*
G75*
G04 Layer_Color=4229937*
%ADD10R,1.5000X0.3000*%
%ADD11R,0.3000X1.5000*%
%ADD12O,0.3000X1.5000*%
%ADD13R,1.3000X0.7000*%
%ADD14R,0.9000X0.6000*%
%ADD15R,5.5000X2.0000*%
%ADD16R,2.0000X1.2000*%
%ADD17R,5.6000X5.6000*%
%ADD18R,0.6000X0.9000*%
%ADD19R,1.6800X1.5200*%
%ADD20C,0.2000*%
%ADD21C,2.0000*%
%ADD22O,0.7500X0.7000*%
%ADD23C,1.5000*%
%ADD24R,1.5000X1.5000*%
%ADD25C,0.7000*%
%ADD26R,0.4000X1.4000*%
%ADD27R,1.7032X0.5032*%
%ADD28R,0.5032X1.7032*%
%ADD29O,0.5032X1.7032*%
%ADD30R,1.5032X0.9032*%
%ADD31R,1.1032X0.8032*%
%ADD32R,5.7032X2.2032*%
%ADD33R,2.2032X1.4032*%
%ADD34R,5.8032X5.8032*%
%ADD35R,0.8032X1.1032*%
%ADD36R,1.8832X1.7232*%
%ADD37C,2.2032*%
%ADD38O,0.9532X0.9032*%
%ADD39C,1.7032*%
%ADD40R,1.7032X1.7032*%
%ADD41C,0.9032*%
%ADD42C,0.1000*%
%ADD43C,0.1185*%
D42*
X210444Y445444D02*
Y452556D01*
X217556D01*
Y445444D01*
X210444D01*
X260444D02*
Y452556D01*
X267556D01*
Y445444D01*
X260444D01*
X160444D02*
Y452556D01*
X167556D01*
Y445444D01*
X160444D01*
X75500Y88944D02*
X71944Y96056D01*
X79056D01*
X75500Y88944D01*
X50000D02*
X46444Y96056D01*
X53556D01*
X50000Y88944D01*
X101250D02*
X97694Y96056D01*
X104806D01*
X101250Y88944D01*
X114000Y114444D02*
X110444Y121556D01*
X117556D01*
X114000Y114444D01*
X88500D02*
X84944Y121556D01*
X92056D01*
X88500Y114444D01*
X62750D02*
X59194Y121556D01*
X66306D01*
X62750Y114444D01*
X276500Y56444D02*
X278278Y58222D01*
X280056D01*
X278278Y60000D01*
X280056Y61778D01*
X278278D01*
X276500Y63556D01*
X274722Y61778D01*
X272944D01*
X274722Y60000D01*
X272944Y58222D01*
X274722D01*
X276500Y56444D01*
X241500Y106444D02*
X243278Y108222D01*
X245056D01*
X243278Y110000D01*
X245056Y111778D01*
X243278D01*
X241500Y113556D01*
X239722Y111778D01*
X237944D01*
X239722Y110000D01*
X237944Y108222D01*
X239722D01*
X241500Y106444D01*
X382500Y56444D02*
X384278Y58222D01*
X386056D01*
X384278Y60000D01*
X386056Y61778D01*
X384278D01*
X382500Y63556D01*
X380722Y61778D01*
X378944D01*
X380722Y60000D01*
X378944Y58222D01*
X380722D01*
X382500Y56444D01*
X347500Y106444D02*
X349278Y108222D01*
X351056D01*
X349278Y110000D01*
X351056Y111778D01*
X349278D01*
X347500Y113556D01*
X345722Y111778D01*
X343944D01*
X345722Y110000D01*
X343944Y108222D01*
X345722D01*
X347500Y106444D01*
X226444Y259444D02*
X228222Y263000D01*
X226444Y266556D01*
X230000Y264778D01*
X233556Y266556D01*
X231778Y263000D01*
X233556Y259444D01*
X230000Y261222D01*
X226444Y259444D01*
X110444Y314444D02*
X112222Y318000D01*
X110444Y321556D01*
X114000Y319778D01*
X117556Y321556D01*
X115778Y318000D01*
X117556Y314444D01*
X114000Y316222D01*
X110444Y314444D01*
X56444Y298444D02*
X58222Y302000D01*
X56444Y305556D01*
X60000Y303778D01*
X63556Y305556D01*
X61778Y302000D01*
X63556Y298444D01*
X60000Y300222D01*
X56444Y298444D01*
X273444Y162444D02*
X275222Y166000D01*
X273444Y169556D01*
X277000Y167778D01*
X280556Y169556D01*
X278778Y166000D01*
X280556Y162444D01*
X277000Y164222D01*
X273444Y162444D01*
X86444Y265444D02*
X88222Y269000D01*
X86444Y272556D01*
X90000Y270778D01*
X93556Y272556D01*
X91778Y269000D01*
X93556Y265444D01*
X90000Y267222D01*
X86444Y265444D01*
X74444Y264444D02*
X76222Y268000D01*
X74444Y271556D01*
X78000Y269778D01*
X81556Y271556D01*
X79778Y268000D01*
X81556Y264444D01*
X78000Y266222D01*
X74444Y264444D01*
X40444Y259444D02*
X42222Y263000D01*
X40444Y266556D01*
X44000Y264778D01*
X47556Y266556D01*
X45778Y263000D01*
X47556Y259444D01*
X44000Y261222D01*
X40444Y259444D01*
X74444Y254444D02*
X76222Y258000D01*
X74444Y261556D01*
X78000Y259778D01*
X81556Y261556D01*
X79778Y258000D01*
X81556Y254444D01*
X78000Y256222D01*
X74444Y254444D01*
X25444Y402444D02*
X27222Y406000D01*
X25444Y409556D01*
X29000Y407778D01*
X32556Y409556D01*
X30778Y406000D01*
X32556Y402444D01*
X29000Y404222D01*
X25444Y402444D01*
X76444D02*
X78222Y406000D01*
X76444Y409556D01*
X80000Y407778D01*
X83556Y409556D01*
X81778Y406000D01*
X83556Y402444D01*
X80000Y404222D01*
X76444Y402444D01*
X344444Y401444D02*
X346222Y405000D01*
X344444Y408556D01*
X348000Y406778D01*
X351556Y408556D01*
X349778Y405000D01*
X351556Y401444D01*
X348000Y403222D01*
X344444Y401444D01*
X390444D02*
X392222Y405000D01*
X390444Y408556D01*
X394000Y406778D01*
X397556Y408556D01*
X395778Y405000D01*
X397556Y401444D01*
X394000Y403222D01*
X390444Y401444D01*
X226444Y326444D02*
X228222Y330000D01*
X226444Y333556D01*
X230000Y331778D01*
X233556Y333556D01*
X231778Y330000D01*
X233556Y326444D01*
X230000Y328222D01*
X226444Y326444D01*
Y351444D02*
X228222Y355000D01*
X226444Y358556D01*
X230000Y356778D01*
X233556Y358556D01*
X231778Y355000D01*
X233556Y351444D01*
X230000Y353222D01*
X226444Y351444D01*
X141444Y188444D02*
X143222Y192000D01*
X141444Y195556D01*
X145000Y193778D01*
X148556Y195556D01*
X146778Y192000D01*
X148556Y188444D01*
X145000Y190222D01*
X141444Y188444D01*
X185444Y199444D02*
X187222Y203000D01*
X185444Y206556D01*
X189000Y204778D01*
X192556Y206556D01*
X190778Y203000D01*
X192556Y199444D01*
X189000Y201222D01*
X185444Y199444D01*
X32444Y192444D02*
X34222Y196000D01*
X32444Y199556D01*
X36000Y197778D01*
X39556Y199556D01*
X37778Y196000D01*
X39556Y192444D01*
X36000Y194222D01*
X32444Y192444D01*
X22444Y251444D02*
X24222Y255000D01*
X22444Y258556D01*
X26000Y256778D01*
X29556Y258556D01*
X27778Y255000D01*
X29556Y251444D01*
X26000Y253222D01*
X22444Y251444D01*
X146444Y155444D02*
X148222Y159000D01*
X146444Y162556D01*
X150000Y160778D01*
X153556Y162556D01*
X151778Y159000D01*
X153556Y155444D01*
X150000Y157222D01*
X146444Y155444D01*
X151444Y188444D02*
X153222Y192000D01*
X151444Y195556D01*
X155000Y193778D01*
X158556Y195556D01*
X156778Y192000D01*
X158556Y188444D01*
X155000Y190222D01*
X151444Y188444D01*
X94444Y136444D02*
X96222Y140000D01*
X94444Y143556D01*
X98000Y141778D01*
X101556Y143556D01*
X99778Y140000D01*
X101556Y136444D01*
X98000Y138222D01*
X94444Y136444D01*
X109444Y98444D02*
X111222Y102000D01*
X109444Y105556D01*
X113000Y103778D01*
X116556Y105556D01*
X114778Y102000D01*
X116556Y98444D01*
X113000Y100222D01*
X109444Y98444D01*
X131444Y204444D02*
X133222Y208000D01*
X131444Y211556D01*
X135000Y209778D01*
X138556Y211556D01*
X136778Y208000D01*
X138556Y204444D01*
X135000Y206222D01*
X131444Y204444D01*
D43*
X136556Y29000D02*
G03*
X136556Y29000I-3556J0D01*
G01*
X34556D02*
G03*
X34556Y29000I-3556J0D01*
G01*
M02*
