%FSLAX44Y44*%
%MOMM*%
G71*
G01*
G75*
G04 Layer_Physical_Order=1*
G04 Layer_Color=255*
%ADD10R,1.5000X0.3000*%
%ADD11R,0.3000X1.5000*%
%ADD12O,0.3000X1.5000*%
%ADD13R,1.3000X0.7000*%
%ADD14R,0.9000X0.6000*%
%ADD15R,5.5000X2.0000*%
%ADD16R,2.0000X1.2000*%
%ADD17R,5.6000X5.6000*%
%ADD18R,0.6000X0.9000*%
%ADD19R,1.6800X1.5200*%
%ADD20C,0.2000*%
%ADD21C,2.0000*%
%ADD22O,0.7500X0.7000*%
%ADD23C,1.5000*%
%ADD24R,1.5000X1.5000*%
%ADD25C,0.7000*%
D10*
X60000Y193000D02*
D03*
Y198000D02*
D03*
Y203000D02*
D03*
Y208000D02*
D03*
Y213000D02*
D03*
Y218000D02*
D03*
Y223000D02*
D03*
Y228000D02*
D03*
Y233000D02*
D03*
Y238000D02*
D03*
Y243000D02*
D03*
Y248000D02*
D03*
Y253000D02*
D03*
Y258000D02*
D03*
Y263000D02*
D03*
Y268000D02*
D03*
X175000D02*
D03*
Y263000D02*
D03*
Y258000D02*
D03*
Y253000D02*
D03*
Y248000D02*
D03*
Y243000D02*
D03*
Y238000D02*
D03*
Y233000D02*
D03*
Y228000D02*
D03*
Y223000D02*
D03*
Y218000D02*
D03*
Y213000D02*
D03*
Y208000D02*
D03*
Y203000D02*
D03*
Y198000D02*
D03*
Y193000D02*
D03*
D11*
X80000Y288000D02*
D03*
X85000D02*
D03*
X90000D02*
D03*
X95000D02*
D03*
X100000D02*
D03*
X105000D02*
D03*
X110000D02*
D03*
X115000D02*
D03*
X120000D02*
D03*
X125000D02*
D03*
X130000D02*
D03*
X135000D02*
D03*
X140000D02*
D03*
X145000D02*
D03*
X150000D02*
D03*
X155000D02*
D03*
Y173000D02*
D03*
X150000D02*
D03*
X145000D02*
D03*
X140000D02*
D03*
X135000D02*
D03*
X130000D02*
D03*
X125000D02*
D03*
X120000D02*
D03*
X115000D02*
D03*
X110000D02*
D03*
X105000D02*
D03*
X100000D02*
D03*
X95000D02*
D03*
X90000D02*
D03*
X85000D02*
D03*
D12*
X80000D02*
D03*
D13*
X29000Y467000D02*
D03*
Y448000D02*
D03*
X80000Y467000D02*
D03*
Y448000D02*
D03*
X348000Y467000D02*
D03*
Y448000D02*
D03*
X394000Y466000D02*
D03*
Y447000D02*
D03*
X338000Y267000D02*
D03*
Y248000D02*
D03*
X381000Y311000D02*
D03*
Y330000D02*
D03*
X13000Y236000D02*
D03*
Y255000D02*
D03*
X334000Y209000D02*
D03*
Y190000D02*
D03*
X237000Y180000D02*
D03*
Y199000D02*
D03*
D14*
X29000Y415000D02*
D03*
Y430000D02*
D03*
X80000Y415000D02*
D03*
Y430000D02*
D03*
X394000Y415000D02*
D03*
Y430000D02*
D03*
X348000Y415000D02*
D03*
Y430000D02*
D03*
X36000Y238000D02*
D03*
Y253000D02*
D03*
Y221000D02*
D03*
Y206000D02*
D03*
X198000Y264000D02*
D03*
Y249000D02*
D03*
X199000Y197000D02*
D03*
Y212000D02*
D03*
X237000Y214000D02*
D03*
Y229000D02*
D03*
X247000Y264000D02*
D03*
Y249000D02*
D03*
X298000Y264000D02*
D03*
Y249000D02*
D03*
D15*
X75000Y350000D02*
D03*
X170000D02*
D03*
D16*
X343000Y298000D02*
D03*
Y342000D02*
D03*
D17*
X271000Y320000D02*
D03*
D18*
X63000Y147000D02*
D03*
X78000D02*
D03*
X130000Y150000D02*
D03*
X115000D02*
D03*
X264000Y264000D02*
D03*
X279000D02*
D03*
X89000Y318000D02*
D03*
X104000D02*
D03*
X142000D02*
D03*
X127000D02*
D03*
X216000D02*
D03*
X201000D02*
D03*
X216000Y300000D02*
D03*
X201000D02*
D03*
D19*
X277000Y213000D02*
D03*
Y180000D02*
D03*
X381000Y213000D02*
D03*
Y180000D02*
D03*
D20*
X164000Y467000D02*
X348000D01*
X80000D02*
X164000D01*
Y449000D02*
Y467000D01*
X89000Y-279000D02*
X94000D01*
X20000Y195000D02*
X62750Y152250D01*
X20000Y195000D02*
Y220000D01*
X35000D01*
X43000Y228000D02*
X60000D01*
X62750Y118000D02*
Y152250D01*
X35000Y220000D02*
X36000Y221000D01*
X43000Y228000D01*
X78000Y147000D02*
X92624D01*
X109770Y164146D01*
Y172770D01*
X47000Y236000D02*
X49500Y233500D01*
X59500D01*
X60000Y233000D01*
X13000Y236000D02*
X47000D01*
X34000Y255000D02*
Y276000D01*
X60000Y302000D01*
X115000D01*
Y288000D02*
Y302000D01*
X75000Y332000D02*
Y350000D01*
X101000Y306000D02*
X116657D01*
X119500Y303157D01*
X75000Y332000D02*
X89000Y318000D01*
X101000Y306000D01*
X119500Y288000D02*
Y303157D01*
X170000Y346000D02*
Y350000D01*
X125000Y288000D02*
Y301000D01*
X142000Y318000D01*
X170000Y346000D01*
X185500Y251500D02*
X198000Y264000D01*
X185500Y238500D02*
Y251500D01*
X175000Y233000D02*
X175500Y233500D01*
X186157D01*
X189500Y236843D01*
Y240500D01*
X198000Y249000D01*
X298000D02*
X337000D01*
X247000D02*
X298000D01*
X175000Y232500D02*
Y233000D01*
Y232500D02*
X183743D01*
X185500Y208500D02*
X189000Y212000D01*
X175500Y208500D02*
X185500D01*
X230000Y263000D02*
X246000D01*
X247000Y264000D02*
X264000D01*
X279000D02*
X298000D01*
X301000Y267000D01*
X338000D01*
X356000Y311000D02*
X381000D01*
X343000Y298000D02*
X356000Y311000D01*
X343000Y342000D02*
X355000Y330000D01*
X381000Y213000D02*
Y225000D01*
X350000D02*
X381000D01*
X334000Y209000D02*
X350000Y225000D01*
X318000D02*
X334000Y209000D01*
X289000Y225000D02*
X318000D01*
X277000Y213000D02*
X289000Y225000D01*
X237000Y229000D02*
X261000D01*
X277000Y213000D01*
X175000Y208000D02*
X175500Y207500D01*
X183743D01*
X237000Y180000D02*
X240000D01*
X261000Y159000D01*
X303000D01*
X334000Y190000D01*
X355000Y330000D02*
X381000D01*
X104000Y318000D02*
X114000D01*
X127000D01*
X201000Y300000D02*
Y318000D01*
Y300000D02*
X210000Y291000D01*
Y249000D02*
Y291000D01*
X198000Y249000D02*
X210000D01*
X247000D01*
X277000Y166000D02*
Y180000D01*
X381000Y61500D02*
Y180000D01*
X347500Y110000D02*
Y114500D01*
X241500Y110000D02*
Y139500D01*
Y110000D02*
X347500D01*
X394000Y405000D02*
Y415000D01*
X60000Y258000D02*
X78000D01*
X394000Y430000D02*
Y447000D01*
X348000Y430000D02*
Y448000D01*
X80000Y430000D02*
Y448000D01*
X29000Y430000D02*
Y448000D01*
Y405000D02*
Y406000D01*
Y415000D01*
X43000Y263000D02*
X60000D01*
X80000Y405000D02*
Y406000D01*
Y415000D01*
X60000Y268000D02*
X80000D01*
X348000Y404000D02*
Y405000D01*
Y415000D01*
X90000Y266000D02*
Y288000D01*
X29000Y467000D02*
X80000D01*
X348000D02*
X393000D01*
X164000Y401000D02*
Y449000D01*
X127000Y364000D02*
X164000Y401000D01*
X127000Y318000D02*
Y364000D01*
X216000Y318000D02*
X269000D01*
X279000Y264000D02*
Y312000D01*
X216000Y300000D02*
X251000D01*
X214000Y346000D02*
Y449000D01*
X169757Y298500D02*
X196757Y325500D01*
X214500D01*
X216000Y324000D01*
Y318000D02*
Y324000D01*
X214000Y346000D02*
X230000Y330000D01*
X198000Y264000D02*
Y270257D01*
X169757Y298500D02*
X198000Y270257D01*
X264000Y389000D02*
Y449000D01*
X230000Y355000D02*
X264000Y389000D01*
X145000Y173000D02*
Y195000D01*
X193000Y203000D02*
X199000Y197000D01*
Y212000D02*
X231000Y180000D01*
X198000Y213000D02*
Y249000D01*
X189000Y212000D02*
X199000D01*
X175000Y203000D02*
X189000D01*
X193000D01*
X120000Y163000D02*
Y173000D01*
X115000Y158000D02*
X120000Y163000D01*
X115000Y150000D02*
Y158000D01*
X75500Y92500D02*
X77849D01*
X103500Y118151D01*
Y128500D01*
X115000Y140000D01*
Y150000D01*
X125000Y155000D02*
Y173000D01*
Y155000D02*
X130000Y150000D01*
X125000Y236000D02*
X127500Y238500D01*
X175000Y238000D02*
Y238500D01*
X185500D01*
X145000Y238500D02*
Y288000D01*
X130000Y238500D02*
Y288000D01*
X127500Y238500D02*
X175000D01*
X60000Y228000D02*
X125000D01*
X125000Y173000D02*
Y236000D01*
X115000Y140000D02*
X241000D01*
X241500Y139500D02*
X261000Y159000D01*
X36000Y196000D02*
Y206000D01*
X13000Y255000D02*
X26000D01*
X34000D01*
X150000Y159000D02*
Y173000D01*
X155000D02*
Y191000D01*
X88500Y118000D02*
Y130500D01*
X98000Y140000D01*
X50000Y92500D02*
X52099D01*
X78000Y118401D01*
Y147000D01*
X101250Y92500D02*
X103500D01*
X113000Y102000D01*
X114000Y103000D01*
X135000Y208000D02*
X175000D01*
X338000Y248000D02*
Y252757D01*
X347500Y262257D01*
Y273257D01*
X330000Y290757D02*
X347500Y273257D01*
X330000Y290757D02*
Y329000D01*
X343000Y342000D01*
Y283414D02*
Y298000D01*
Y283414D02*
X351500Y274914D01*
Y241500D02*
Y274914D01*
X350000Y240000D02*
X351500Y241500D01*
X350000Y225000D02*
Y240000D01*
X237000Y199000D02*
Y214000D01*
D21*
X214000Y449000D02*
D03*
X264000D02*
D03*
X164000D02*
D03*
D22*
X133000Y29000D02*
D03*
X31000D02*
D03*
D23*
X75500Y92500D02*
D03*
X50000D02*
D03*
X101250D02*
D03*
X114000Y118000D02*
D03*
X88500D02*
D03*
X62750D02*
D03*
X241500Y110000D02*
D03*
X347500D02*
D03*
D24*
X276500Y60000D02*
D03*
X382500D02*
D03*
D25*
X230000Y263000D02*
D03*
X114000Y318000D02*
D03*
X60000Y302000D02*
D03*
X277000Y166000D02*
D03*
X90000Y269000D02*
D03*
X78000Y268000D02*
D03*
X44000Y263000D02*
D03*
X78000Y258000D02*
D03*
X29000Y406000D02*
D03*
X80000D02*
D03*
X348000Y405000D02*
D03*
X394000D02*
D03*
X230000Y330000D02*
D03*
Y355000D02*
D03*
X145000Y192000D02*
D03*
X189000Y203000D02*
D03*
X36000Y196000D02*
D03*
X26000Y255000D02*
D03*
X150000Y159000D02*
D03*
X155000Y192000D02*
D03*
X98000Y140000D02*
D03*
X113000Y102000D02*
D03*
X135000Y208000D02*
D03*
M02*
