%FSLAX44Y44*%
%MOMM*%
G71*
G01*
G75*
G04 Layer_Physical_Order=2*
G04 Layer_Color=16711680*
%ADD10R,1.5000X0.3000*%
%ADD11R,0.3000X1.5000*%
%ADD12O,0.3000X1.5000*%
%ADD13R,1.3000X0.7000*%
%ADD14R,0.9000X0.6000*%
%ADD15R,5.5000X2.0000*%
%ADD16R,2.0000X1.2000*%
%ADD17R,5.6000X5.6000*%
%ADD18R,0.6000X0.9000*%
%ADD19R,1.6800X1.5200*%
%ADD20C,0.2000*%
%ADD21C,2.0000*%
%ADD22O,0.7500X0.7000*%
%ADD23C,1.5000*%
%ADD24R,1.5000X1.5000*%
%ADD25C,0.7000*%
D20*
X60000Y302000D02*
X98000D01*
X114000Y318000D01*
X276500Y60000D02*
Y165500D01*
X29000Y307000D02*
Y406000D01*
Y307000D02*
X78000Y258000D01*
X44000Y406000D02*
X80000D01*
X37500Y412500D02*
X44000Y406000D01*
X26308Y412500D02*
X37500D01*
X22500Y408692D02*
X26308Y412500D01*
X22500Y286343D02*
Y408692D01*
Y286343D02*
X44000Y264843D01*
X215000Y405000D02*
X348000D01*
X78000Y268000D02*
X215000Y405000D01*
X357192D02*
X394000D01*
X350692Y398500D02*
X357192Y405000D01*
X219500Y398500D02*
X350692D01*
X90000Y269000D02*
X219500Y398500D01*
X230000Y263000D02*
Y330000D01*
X145000Y270000D02*
X230000Y355000D01*
X145000Y192000D02*
Y270000D01*
X189000Y203000D02*
Y222000D01*
X230000Y263000D01*
X26000Y206000D02*
Y255000D01*
Y206000D02*
X36000Y196000D01*
X98000Y140000D02*
X103000D01*
X155000Y192000D01*
X113000Y102000D02*
X150000Y139000D01*
Y159000D01*
X36000Y196000D02*
X123000D01*
X135000Y208000D01*
D21*
X214000Y449000D02*
D03*
X264000D02*
D03*
X164000D02*
D03*
D22*
X133000Y29000D02*
D03*
X31000D02*
D03*
D23*
X75500Y92500D02*
D03*
X50000D02*
D03*
X101250D02*
D03*
X114000Y118000D02*
D03*
X88500D02*
D03*
X62750D02*
D03*
X241500Y110000D02*
D03*
X347500D02*
D03*
D24*
X276500Y60000D02*
D03*
X382500D02*
D03*
D25*
X230000Y263000D02*
D03*
X114000Y318000D02*
D03*
X60000Y302000D02*
D03*
X277000Y166000D02*
D03*
X90000Y269000D02*
D03*
X78000Y268000D02*
D03*
X44000Y263000D02*
D03*
X78000Y258000D02*
D03*
X29000Y406000D02*
D03*
X80000D02*
D03*
X348000Y405000D02*
D03*
X394000D02*
D03*
X230000Y330000D02*
D03*
Y355000D02*
D03*
X145000Y192000D02*
D03*
X189000Y203000D02*
D03*
X36000Y196000D02*
D03*
X26000Y255000D02*
D03*
X150000Y159000D02*
D03*
X155000Y192000D02*
D03*
X98000Y140000D02*
D03*
X113000Y102000D02*
D03*
X135000Y208000D02*
D03*
M02*
