%FSLAX44Y44*%
%MOMM*%
G71*
G01*
G75*
%ADD10R,0.6000X0.9000*%
%ADD11R,0.9000X0.6000*%
%ADD12R,1.3000X0.7000*%
%ADD13R,1.6800X1.5200*%
%ADD14R,2.0000X1.2000*%
%ADD15R,5.6000X5.6000*%
%ADD16R,5.5000X2.0000*%
%ADD17O,0.3000X1.5000*%
%ADD18R,0.3000X1.5000*%
%ADD19R,1.5000X0.3000*%
%ADD20C,0.2000*%
%ADD21C,1.0000*%
%ADD22C,1.5000*%
%ADD23R,1.5000X1.5000*%
%ADD24O,0.7500X0.7000*%
%ADD25C,2.0000*%
%ADD26C,0.7000*%
D10*
X169000Y319000D02*
D03*
X154000D02*
D03*
X169000Y306000D02*
D03*
X154000D02*
D03*
X142000Y325000D02*
D03*
X127000D02*
D03*
X102000Y325000D02*
D03*
X117000D02*
D03*
X279000Y264000D02*
D03*
X264000D02*
D03*
X115000Y150000D02*
D03*
X130000D02*
D03*
X78000Y147000D02*
D03*
X63000D02*
D03*
D11*
X298000Y249000D02*
D03*
Y264000D02*
D03*
X247000Y249000D02*
D03*
Y264000D02*
D03*
X237000Y229000D02*
D03*
Y214000D02*
D03*
X199000Y212000D02*
D03*
Y197000D02*
D03*
Y223500D02*
D03*
Y238500D02*
D03*
X36000Y206000D02*
D03*
Y221000D02*
D03*
Y253000D02*
D03*
Y238000D02*
D03*
X348000Y430000D02*
D03*
Y415000D02*
D03*
X394000Y430000D02*
D03*
Y415000D02*
D03*
X80000Y430000D02*
D03*
Y415000D02*
D03*
X29000Y430000D02*
D03*
Y415000D02*
D03*
D12*
X237000Y199000D02*
D03*
Y180000D02*
D03*
X13000Y255000D02*
D03*
Y236000D02*
D03*
X381000Y330000D02*
D03*
Y311000D02*
D03*
X394000Y449000D02*
D03*
Y468000D02*
D03*
X348000Y448000D02*
D03*
Y467000D02*
D03*
X80000Y448000D02*
D03*
Y467000D02*
D03*
X29000Y448000D02*
D03*
Y467000D02*
D03*
X338000Y248000D02*
D03*
Y267000D02*
D03*
X334000Y190000D02*
D03*
Y209000D02*
D03*
D13*
X381000Y180000D02*
D03*
Y213000D02*
D03*
X277000Y180000D02*
D03*
Y213000D02*
D03*
D14*
X343000Y342000D02*
D03*
Y298000D02*
D03*
D15*
X271000Y320000D02*
D03*
D16*
X170000Y356000D02*
D03*
X75000D02*
D03*
D17*
X80000Y173000D02*
D03*
D18*
X85000D02*
D03*
X90000D02*
D03*
X95000D02*
D03*
X100000D02*
D03*
X105000D02*
D03*
X110000D02*
D03*
X115000D02*
D03*
X120000D02*
D03*
X125000D02*
D03*
X130000D02*
D03*
X135000D02*
D03*
X140000D02*
D03*
X145000D02*
D03*
X150000D02*
D03*
X155000D02*
D03*
Y288000D02*
D03*
X150000D02*
D03*
X145000D02*
D03*
X140000D02*
D03*
X135000D02*
D03*
X130000D02*
D03*
X125000D02*
D03*
X120000D02*
D03*
X115000D02*
D03*
X110000D02*
D03*
X105000D02*
D03*
X100000D02*
D03*
X95000D02*
D03*
X90000D02*
D03*
X85000D02*
D03*
X80000D02*
D03*
D19*
X175000Y193000D02*
D03*
Y198000D02*
D03*
Y203000D02*
D03*
Y208000D02*
D03*
Y213000D02*
D03*
Y218000D02*
D03*
Y223000D02*
D03*
Y228000D02*
D03*
Y233000D02*
D03*
Y238000D02*
D03*
Y243000D02*
D03*
Y248000D02*
D03*
Y253000D02*
D03*
Y258000D02*
D03*
Y263000D02*
D03*
Y268000D02*
D03*
X60000D02*
D03*
Y263000D02*
D03*
Y258000D02*
D03*
Y253000D02*
D03*
Y248000D02*
D03*
Y243000D02*
D03*
Y238000D02*
D03*
Y233000D02*
D03*
Y228000D02*
D03*
Y223000D02*
D03*
Y218000D02*
D03*
Y213000D02*
D03*
Y208000D02*
D03*
Y203000D02*
D03*
Y198000D02*
D03*
Y193000D02*
D03*
D22*
X347500Y110000D02*
D03*
X241500D02*
D03*
X62750Y118000D02*
D03*
X88500D02*
D03*
X114000D02*
D03*
X101250Y92500D02*
D03*
X50000D02*
D03*
X75500D02*
D03*
D23*
X382500Y60000D02*
D03*
X276500D02*
D03*
D24*
X31000Y29000D02*
D03*
X133000D02*
D03*
D25*
X164000Y447000D02*
D03*
X264000D02*
D03*
X214000D02*
D03*
M02*
