%FSLAX44Y44*%
%MOMM*%
G71*
G01*
G75*
%ADD10R,1.5000X0.3000*%
%ADD11R,0.3000X1.5000*%
%ADD12O,0.3000X1.5000*%
%ADD13R,1.3000X0.7000*%
%ADD14R,0.9000X0.6000*%
%ADD15R,5.5000X2.0000*%
%ADD16R,2.0000X1.2000*%
%ADD17R,5.6000X5.6000*%
%ADD18R,0.6000X0.9000*%
%ADD19R,1.6800X1.5200*%
%ADD20C,0.2000*%
%ADD21C,2.0000*%
%ADD22O,0.7500X0.7000*%
%ADD23C,1.5000*%
%ADD24R,1.5000X1.5000*%
%ADD25C,0.7000*%
%ADD26R,0.4000X1.4000*%
D20*
X129000Y390000D02*
Y485000D01*
X179000D01*
Y535000D01*
X184000D01*
Y705000D01*
X244000D01*
Y535000D02*
Y705000D01*
Y535000D02*
X249000D01*
Y485000D02*
Y535000D01*
Y485000D02*
X298000D01*
X299000Y484000D01*
Y390000D02*
Y484000D01*
X129000Y390000D02*
X299000D01*
X72850Y198700D02*
X85700Y185850D01*
X72850Y198700D02*
Y275150D01*
X162150D01*
Y185850D02*
Y275150D01*
X85700Y185850D02*
X162150D01*
X23000Y474000D02*
X35000D01*
X74000D02*
X86000D01*
X33000Y421000D02*
Y424000D01*
X25000Y421000D02*
Y424000D01*
X84000Y421000D02*
Y424000D01*
X76000Y421000D02*
Y424000D01*
X65000Y330000D02*
X180000D01*
Y337000D01*
X65000Y330000D02*
Y337000D01*
Y363000D02*
Y370000D01*
X180000D01*
Y363000D02*
Y370000D01*
X398000Y421000D02*
Y424000D01*
X390000Y421000D02*
Y424000D01*
X342000Y474000D02*
X354000D01*
X388000Y473000D02*
X400000D01*
X352000Y421000D02*
Y424000D01*
X344000Y421000D02*
Y424000D01*
X342500Y286750D02*
X342750D01*
X302000Y353000D02*
X311000D01*
Y287000D02*
Y353000D01*
X302000Y287000D02*
X311000D01*
X16000Y131000D02*
X148000D01*
X16000Y-50000D02*
X148000D01*
X16000Y40000D02*
Y131000D01*
Y-50000D02*
Y18000D01*
X148000Y-50000D02*
Y18000D01*
Y40000D02*
Y131000D01*
X209000Y13000D02*
X294000D01*
Y133000D01*
X209000D02*
X294000D01*
X209000Y13000D02*
Y133000D01*
X315000Y13000D02*
X400000D01*
Y133000D01*
X315000D02*
X400000D01*
X315000Y13000D02*
Y133000D01*
X69000Y143000D02*
X72000D01*
X69000Y151000D02*
X72000D01*
X263000Y175000D02*
X266000D01*
X263000D02*
Y219000D01*
X291000Y175000D02*
Y219000D01*
X288000Y175000D02*
X291000D01*
X367000D02*
X370000D01*
X367000D02*
Y219000D01*
X395000Y175000D02*
Y219000D01*
X392000Y175000D02*
X395000D01*
X241000Y220000D02*
Y223000D01*
X233000Y220000D02*
Y223000D01*
X231000Y173000D02*
X243000D01*
X144664Y153331D02*
X142998Y154997D01*
X139666D01*
X138000Y153331D01*
Y146666D01*
X139666Y145000D01*
X142998D01*
X144664Y146666D01*
X147997Y145000D02*
X151329D01*
X149663D01*
Y154997D01*
X147997Y153331D01*
X201331Y235336D02*
X202997Y237002D01*
Y240334D01*
X201331Y242000D01*
X194666D01*
X193000Y240334D01*
Y237002D01*
X194666Y235336D01*
X193000Y225339D02*
Y232003D01*
X199664Y225339D01*
X201331D01*
X202997Y227005D01*
Y230337D01*
X201331Y232003D01*
X182665Y321331D02*
X180998Y322997D01*
X177666D01*
X176000Y321331D01*
Y314666D01*
X177666Y313000D01*
X180998D01*
X182665Y314666D01*
X185997Y321331D02*
X187663Y322997D01*
X190995D01*
X192661Y321331D01*
Y319664D01*
X190995Y317998D01*
X189329D01*
X190995D01*
X192661Y316332D01*
Y314666D01*
X190995Y313000D01*
X187663D01*
X185997Y314666D01*
X182665Y303331D02*
X180998Y304997D01*
X177666D01*
X176000Y303331D01*
Y296666D01*
X177666Y295000D01*
X180998D01*
X182665Y296666D01*
X190995Y295000D02*
Y304997D01*
X185997Y299998D01*
X192661D01*
X16669Y210665D02*
X15003Y208998D01*
Y205666D01*
X16669Y204000D01*
X23334D01*
X25000Y205666D01*
Y208998D01*
X23334Y210665D01*
X15003Y220661D02*
Y213997D01*
X20002D01*
X18335Y217329D01*
Y218995D01*
X20002Y220661D01*
X23334D01*
X25000Y218995D01*
Y215663D01*
X23334Y213997D01*
X202331Y181336D02*
X203997Y183002D01*
Y186334D01*
X202331Y188000D01*
X195666D01*
X194000Y186334D01*
Y183002D01*
X195666Y181336D01*
X203997Y171339D02*
X202331Y174671D01*
X198998Y178003D01*
X195666D01*
X194000Y176337D01*
Y173005D01*
X195666Y171339D01*
X197332D01*
X198998Y173005D01*
Y178003D01*
X156664Y321331D02*
X154998Y322997D01*
X151666D01*
X150000Y321331D01*
Y314666D01*
X151666Y313000D01*
X154998D01*
X156664Y314666D01*
X159997Y322997D02*
X166661D01*
Y321331D01*
X159997Y314666D01*
Y313000D01*
X70665Y322331D02*
X68998Y323997D01*
X65666D01*
X64000Y322331D01*
Y315666D01*
X65666Y314000D01*
X68998D01*
X70665Y315666D01*
X73997Y322331D02*
X75663Y323997D01*
X78995D01*
X80661Y322331D01*
Y320664D01*
X78995Y318998D01*
X80661Y317332D01*
Y315666D01*
X78995Y314000D01*
X75663D01*
X73997Y315666D01*
Y317332D01*
X75663Y318998D01*
X73997Y320664D01*
Y322331D01*
X75663Y318998D02*
X78995D01*
X9669Y270665D02*
X8003Y268998D01*
Y265666D01*
X9669Y264000D01*
X16334D01*
X18000Y265666D01*
Y268998D01*
X16334Y270665D01*
Y273997D02*
X18000Y275663D01*
Y278995D01*
X16334Y280661D01*
X9669D01*
X8003Y278995D01*
Y275663D01*
X9669Y273997D01*
X11336D01*
X13002Y275663D01*
Y280661D01*
X32669Y270665D02*
X31003Y268998D01*
Y265666D01*
X32669Y264000D01*
X39334D01*
X41000Y265666D01*
Y268998D01*
X39334Y270665D01*
X41000Y273997D02*
Y277329D01*
Y275663D01*
X31003D01*
X32669Y273997D01*
Y282327D02*
X31003Y283994D01*
Y287326D01*
X32669Y288992D01*
X39334D01*
X41000Y287326D01*
Y283994D01*
X39334Y282327D01*
X32669D01*
X333233Y226450D02*
X332067Y227616D01*
X329734D01*
X328568Y226450D01*
Y221784D01*
X329734Y220618D01*
X332067D01*
X333233Y221784D01*
X335566Y220618D02*
X337898D01*
X336732D01*
Y227616D01*
X335566Y226450D01*
X341397Y220618D02*
X343730D01*
X342564D01*
Y227616D01*
X341397Y226450D01*
X402331Y326335D02*
X403997Y328002D01*
Y331334D01*
X402331Y333000D01*
X395666D01*
X394000Y331334D01*
Y328002D01*
X395666Y326335D01*
X394000Y323003D02*
Y319671D01*
Y321337D01*
X403997D01*
X402331Y323003D01*
X394000Y308008D02*
Y314673D01*
X400664Y308008D01*
X402331D01*
X403997Y309674D01*
Y313006D01*
X402331Y314673D01*
X339137Y286810D02*
X337470Y288476D01*
X334138D01*
X332472Y286810D01*
Y280145D01*
X334138Y278479D01*
X337470D01*
X339137Y280145D01*
X342469Y278479D02*
X345801D01*
X344135D01*
Y288476D01*
X342469Y286810D01*
X350799D02*
X352466Y288476D01*
X355798D01*
X357464Y286810D01*
Y285144D01*
X355798Y283478D01*
X354132D01*
X355798D01*
X357464Y281812D01*
Y280145D01*
X355798Y278479D01*
X352466D01*
X350799Y280145D01*
X301665Y279832D02*
X300499Y280998D01*
X298166D01*
X297000Y279832D01*
Y275166D01*
X298166Y274000D01*
X300499D01*
X301665Y275166D01*
X303998Y274000D02*
X306330D01*
X305164D01*
Y280998D01*
X303998Y279832D01*
X313328Y274000D02*
Y280998D01*
X309829Y277499D01*
X314494D01*
X240665Y278831D02*
X239499Y279998D01*
X237166D01*
X236000Y278831D01*
Y274166D01*
X237166Y273000D01*
X239499D01*
X240665Y274166D01*
X242998Y273000D02*
X245330D01*
X244164D01*
Y279998D01*
X242998Y278831D01*
X253494Y279998D02*
X248829D01*
Y276499D01*
X251162Y277665D01*
X252328D01*
X253494Y276499D01*
Y274166D01*
X252328Y273000D01*
X249995D01*
X248829Y274166D01*
X370003Y439000D02*
X380000D01*
Y445664D01*
X370003Y455661D02*
Y448997D01*
X380000D01*
Y455661D01*
X375002Y448997D02*
Y452329D01*
X370003Y458994D02*
X380000D01*
Y463992D01*
X378334Y465658D01*
X371669D01*
X370003Y463992D01*
Y458994D01*
X371669Y468990D02*
X370003Y470657D01*
Y473989D01*
X371669Y475655D01*
X378334D01*
X380000Y473989D01*
Y470657D01*
X378334Y468990D01*
X371669D01*
X323003Y441000D02*
X333000D01*
Y447664D01*
X323003Y457661D02*
Y450997D01*
X333000D01*
Y457661D01*
X328002Y450997D02*
Y454329D01*
X323003Y460994D02*
X333000D01*
Y465992D01*
X331334Y467658D01*
X324669D01*
X323003Y465992D01*
Y460994D01*
X333000Y470990D02*
Y474323D01*
Y472657D01*
X323003D01*
X324669Y470990D01*
X55003Y442000D02*
X65000D01*
Y448665D01*
X55003Y458661D02*
Y451997D01*
X65000D01*
Y458661D01*
X60002Y451997D02*
Y455329D01*
X55003Y461994D02*
X65000D01*
Y466992D01*
X63334Y468658D01*
X56669D01*
X55003Y466992D01*
Y461994D01*
X65000Y478655D02*
Y471990D01*
X58335Y478655D01*
X56669D01*
X55003Y476989D01*
Y473657D01*
X56669Y471990D01*
X7003Y442000D02*
X17000D01*
Y448665D01*
X7003Y458661D02*
Y451997D01*
X17000D01*
Y458661D01*
X12002Y451997D02*
Y455329D01*
X7003Y461994D02*
X17000D01*
Y466992D01*
X15334Y468658D01*
X8669D01*
X7003Y466992D01*
Y461994D01*
X8669Y471990D02*
X7003Y473657D01*
Y476989D01*
X8669Y478655D01*
X10336D01*
X12002Y476989D01*
Y475323D01*
Y476989D01*
X13668Y478655D01*
X15334D01*
X17000Y476989D01*
Y473657D01*
X15334Y471990D01*
X367938Y235744D02*
Y228746D01*
X371437D01*
X372603Y229912D01*
Y234578D01*
X371437Y235744D01*
X367938D01*
X379601Y228746D02*
X374936D01*
X379601Y233411D01*
Y234578D01*
X378435Y235744D01*
X376102D01*
X374936Y234578D01*
X264052Y235744D02*
Y228746D01*
X267551D01*
X268717Y229912D01*
Y234578D01*
X267551Y235744D01*
X264052D01*
X271050Y234578D02*
X272216Y235744D01*
X274549D01*
X275715Y234578D01*
Y233411D01*
X274549Y232245D01*
X273382D01*
X274549D01*
X275715Y231079D01*
Y229912D01*
X274549Y228746D01*
X272216D01*
X271050Y229912D01*
X217002Y181000D02*
X224000D01*
Y184499D01*
X222834Y185665D01*
X218169D01*
X217002Y184499D01*
Y181000D01*
X224000Y191497D02*
X217002D01*
X220501Y187998D01*
Y192663D01*
X269665Y280998D02*
X265000D01*
Y277499D01*
X267333D01*
X265000D01*
Y274000D01*
X271998Y280998D02*
Y274000D01*
X275497D01*
X276663Y275166D01*
Y276333D01*
X275497Y277499D01*
X271998D01*
X275497D01*
X276663Y278665D01*
Y279832D01*
X275497Y280998D01*
X271998D01*
X278995Y274000D02*
X281328D01*
X280162D01*
Y280998D01*
X278995Y279832D01*
X23321Y149081D02*
X19988D01*
X21654D01*
Y140750D01*
X19988Y139084D01*
X18322D01*
X16656Y140750D01*
X26653Y139084D02*
X29985D01*
X28319D01*
Y149081D01*
X26653Y147415D01*
X316122Y141116D02*
Y151113D01*
X321120D01*
X322786Y149447D01*
Y146114D01*
X321120Y144448D01*
X316122D01*
X326119Y141116D02*
X329451D01*
X327785D01*
Y151113D01*
X326119Y149447D01*
X209950Y141116D02*
Y151113D01*
X214948D01*
X216614Y149447D01*
Y146114D01*
X214948Y144448D01*
X209950D01*
X226611Y141116D02*
X219947D01*
X226611Y147781D01*
Y149447D01*
X224945Y151113D01*
X221613D01*
X219947Y149447D01*
X112000Y398000D02*
Y407997D01*
X116998D01*
X118665Y406331D01*
Y402998D01*
X116998Y401332D01*
X112000D01*
X115332D02*
X118665Y398000D01*
X121997D02*
X125329D01*
X123663D01*
Y407997D01*
X121997Y406331D01*
X380000Y410000D02*
X370003D01*
Y414998D01*
X371669Y416665D01*
X375002D01*
X376668Y414998D01*
Y410000D01*
Y413332D02*
X380000Y416665D01*
Y426661D02*
Y419997D01*
X373335Y426661D01*
X371669D01*
X370003Y424995D01*
Y421663D01*
X371669Y419997D01*
X332000Y409000D02*
X322003D01*
Y413998D01*
X323669Y415664D01*
X327002D01*
X328668Y413998D01*
Y409000D01*
Y412332D02*
X332000Y415664D01*
Y425661D02*
Y418997D01*
X325336Y425661D01*
X323669D01*
X322003Y423995D01*
Y420663D01*
X323669Y418997D01*
X66000Y410000D02*
X56003D01*
Y414998D01*
X57669Y416665D01*
X61002D01*
X62668Y414998D01*
Y410000D01*
Y413332D02*
X66000Y416665D01*
Y426661D02*
Y419997D01*
X59335Y426661D01*
X57669D01*
X56003Y424995D01*
Y421663D01*
X57669Y419997D01*
X16000Y410000D02*
X6003D01*
Y414998D01*
X7669Y416665D01*
X11002D01*
X12668Y414998D01*
Y410000D01*
Y413332D02*
X16000Y416665D01*
Y426661D02*
Y419997D01*
X9336Y426661D01*
X7669D01*
X6003Y424995D01*
Y421663D01*
X7669Y419997D01*
X39000Y143000D02*
Y152997D01*
X43998D01*
X45665Y151331D01*
Y147998D01*
X43998Y146332D01*
X39000D01*
X42332D02*
X45665Y143000D01*
X48997Y151331D02*
X50663Y152997D01*
X53995D01*
X55661Y151331D01*
Y149664D01*
X53995Y147998D01*
X52329D01*
X53995D01*
X55661Y146332D01*
Y144666D01*
X53995Y143000D01*
X50663D01*
X48997Y144666D01*
X224000Y214000D02*
X217002D01*
Y217499D01*
X218169Y218665D01*
X220501D01*
X221667Y217499D01*
Y214000D01*
Y216333D02*
X224000Y218665D01*
Y224497D02*
X217002D01*
X220501Y220998D01*
Y225663D01*
X54000Y290997D02*
Y282666D01*
X55666Y281000D01*
X58998D01*
X60665Y282666D01*
Y290997D01*
X63997Y281000D02*
X67329D01*
X65663D01*
Y290997D01*
X63997Y289331D01*
X347997Y329000D02*
X339666D01*
X338000Y327334D01*
Y324002D01*
X339666Y322336D01*
X347997D01*
X338000Y312339D02*
Y319003D01*
X344664Y312339D01*
X346331D01*
X347997Y314005D01*
Y317337D01*
X346331Y319003D01*
X112000Y383997D02*
Y382331D01*
X115332Y378998D01*
X118665Y382331D01*
Y383997D01*
X115332Y378998D02*
Y374000D01*
X121997D02*
X125329D01*
X123663D01*
Y383997D01*
X121997Y382331D01*
D26*
X265000Y213000D02*
D03*
X289000Y213000D02*
D03*
X369000Y213000D02*
D03*
X393000Y213000D02*
D03*
M02*
