%FSLAX44Y44*%
%MOMM*%
G71*
G01*
G75*
G04 Layer_Physical_Order=2*
G04 Layer_Color=16711680*
%ADD10R,0.6000X0.9000*%
%ADD11R,0.9000X0.6000*%
%ADD12R,1.3000X0.7000*%
%ADD13R,1.6800X1.5200*%
%ADD14R,2.0000X1.2000*%
%ADD15R,5.6000X5.6000*%
%ADD16R,5.5000X2.0000*%
%ADD17O,0.3000X1.5000*%
%ADD18R,0.3000X1.5000*%
%ADD19R,1.5000X0.3000*%
%ADD20C,0.2000*%
%ADD21C,1.0000*%
%ADD22C,1.5000*%
%ADD23R,1.5000X1.5000*%
%ADD24O,0.7500X0.7000*%
%ADD25C,2.0000*%
%ADD26C,0.7000*%
G36*
X406000Y5000D02*
X10000D01*
X8413Y192273D01*
X9677Y192956D01*
X10643Y192311D01*
X11730Y192094D01*
Y198000D01*
Y203906D01*
X10643Y203690D01*
X9592Y202987D01*
X8316Y203662D01*
X8000Y241000D01*
X8215Y266405D01*
X9491Y267080D01*
X10643Y266310D01*
X11730Y266094D01*
Y272000D01*
Y277906D01*
X10643Y277689D01*
X9575Y276976D01*
X8311Y277658D01*
X10000Y477000D01*
X8000Y479000D01*
X9000Y480000D01*
X48822D01*
X49207Y478730D01*
X48645Y478355D01*
X47310Y476357D01*
X47094Y475270D01*
X58906D01*
X58689Y476357D01*
X57355Y478355D01*
X56793Y478730D01*
X57178Y480000D01*
X105822D01*
X106207Y478730D01*
X105645Y478355D01*
X104311Y476357D01*
X104094Y475270D01*
X115906D01*
X115690Y476357D01*
X114355Y478355D01*
X113793Y478730D01*
X114178Y480000D01*
X310722D01*
X310847Y478730D01*
X310643Y478689D01*
X308645Y477355D01*
X307311Y475357D01*
X307094Y474270D01*
X318906D01*
X318690Y475357D01*
X317355Y477355D01*
X315357Y478689D01*
X315153Y478730D01*
X315278Y480000D01*
X361822D01*
X362207Y478730D01*
X361645Y478355D01*
X360311Y476357D01*
X360094Y475270D01*
X371906D01*
X371690Y476357D01*
X370355Y478355D01*
X369793Y478730D01*
X370178Y480000D01*
X406000D01*
Y5000D01*
D02*
G37*
%LPC*%
G36*
X242770Y119959D02*
Y111270D01*
X251459D01*
X251282Y112621D01*
X250270Y115063D01*
X248661Y117161D01*
X246563Y118770D01*
X244121Y119782D01*
X242770Y119959D01*
D02*
G37*
G36*
X240230D02*
X238879Y119782D01*
X236437Y118770D01*
X234339Y117161D01*
X232730Y115063D01*
X231718Y112621D01*
X231541Y111270D01*
X240230D01*
Y119959D01*
D02*
G37*
G36*
X346230D02*
X344879Y119782D01*
X342437Y118770D01*
X340339Y117161D01*
X338730Y115063D01*
X337718Y112621D01*
X337541Y111270D01*
X346230D01*
Y119959D01*
D02*
G37*
G36*
X45730Y151730D02*
X41094D01*
X41311Y150643D01*
X42645Y148645D01*
X44643Y147310D01*
X45730Y147094D01*
Y151730D01*
D02*
G37*
G36*
X348770Y119959D02*
Y111270D01*
X357459D01*
X357282Y112621D01*
X356270Y115063D01*
X354661Y117161D01*
X352563Y118770D01*
X350121Y119782D01*
X348770Y119959D01*
D02*
G37*
G36*
X114000Y127582D02*
X111520Y127255D01*
X109209Y126298D01*
X107225Y124775D01*
X105702Y122791D01*
X104745Y120480D01*
X104418Y118000D01*
X104745Y115520D01*
X105702Y113209D01*
X107225Y111224D01*
X109209Y109702D01*
X111520Y108744D01*
X114000Y108418D01*
X116480Y108744D01*
X118791Y109702D01*
X120775Y111224D01*
X122298Y113209D01*
X123256Y115520D01*
X123582Y118000D01*
X123256Y120480D01*
X122298Y122791D01*
X120775Y124775D01*
X118791Y126298D01*
X116480Y127255D01*
X114000Y127582D01*
D02*
G37*
G36*
X346230Y108730D02*
X337541D01*
X337718Y107379D01*
X338730Y104937D01*
X340339Y102839D01*
X342437Y101230D01*
X344879Y100218D01*
X346230Y100041D01*
Y108730D01*
D02*
G37*
G36*
X251459D02*
X242770D01*
Y100041D01*
X244121Y100218D01*
X246563Y101230D01*
X248661Y102839D01*
X250270Y104937D01*
X251282Y107379D01*
X251459Y108730D01*
D02*
G37*
G36*
X357459D02*
X348770D01*
Y100041D01*
X350121Y100218D01*
X352563Y101230D01*
X354661Y102839D01*
X356270Y104937D01*
X357282Y107379D01*
X357459Y108730D01*
D02*
G37*
G36*
X88500Y127582D02*
X86020Y127255D01*
X83709Y126298D01*
X81725Y124775D01*
X80202Y122791D01*
X79244Y120480D01*
X78918Y118000D01*
X79244Y115520D01*
X80202Y113209D01*
X81725Y111224D01*
X83709Y109702D01*
X86020Y108744D01*
X88500Y108418D01*
X90980Y108744D01*
X93291Y109702D01*
X95275Y111224D01*
X96798Y113209D01*
X97755Y115520D01*
X98082Y118000D01*
X97755Y120480D01*
X96798Y122791D01*
X95275Y124775D01*
X93291Y126298D01*
X90980Y127255D01*
X88500Y127582D01*
D02*
G37*
G36*
X62750D02*
X60270Y127255D01*
X57959Y126298D01*
X55974Y124775D01*
X54452Y122791D01*
X53495Y120480D01*
X53168Y118000D01*
X53495Y115520D01*
X54452Y113209D01*
X55974Y111224D01*
X57959Y109702D01*
X60270Y108744D01*
X62750Y108418D01*
X65230Y108744D01*
X67541Y109702D01*
X69525Y111224D01*
X71048Y113209D01*
X72005Y115520D01*
X72332Y118000D01*
X72005Y120480D01*
X71048Y122791D01*
X69525Y124775D01*
X67541Y126298D01*
X65230Y127255D01*
X62750Y127582D01*
D02*
G37*
G36*
X18906Y196730D02*
X14270D01*
Y192094D01*
X15357Y192311D01*
X17355Y193645D01*
X18690Y195643D01*
X18906Y196730D01*
D02*
G37*
G36*
X217270Y185906D02*
Y181270D01*
X221906D01*
X221689Y182357D01*
X220355Y184355D01*
X218357Y185690D01*
X217270Y185906D01*
D02*
G37*
G36*
X214730Y203730D02*
X210094D01*
X210310Y202643D01*
X211645Y200645D01*
X213643Y199310D01*
X214730Y199094D01*
Y203730D01*
D02*
G37*
G36*
X14270Y203906D02*
Y199270D01*
X18906D01*
X18690Y200357D01*
X17355Y202355D01*
X15357Y203690D01*
X14270Y203906D01*
D02*
G37*
G36*
X221906Y203730D02*
X217270D01*
Y199094D01*
X218357Y199310D01*
X220355Y200645D01*
X221689Y202643D01*
X221906Y203730D01*
D02*
G37*
G36*
X214730Y185906D02*
X213643Y185690D01*
X211645Y184355D01*
X210310Y182357D01*
X210094Y181270D01*
X214730D01*
Y185906D01*
D02*
G37*
G36*
X45730Y158906D02*
X44643Y158689D01*
X42645Y157355D01*
X41311Y155357D01*
X41094Y154270D01*
X45730D01*
Y158906D01*
D02*
G37*
G36*
X52906Y151730D02*
X48270D01*
Y147094D01*
X49357Y147310D01*
X51355Y148645D01*
X52690Y150643D01*
X52906Y151730D01*
D02*
G37*
G36*
X48270Y158906D02*
Y154270D01*
X52906D01*
X52690Y155357D01*
X51355Y157355D01*
X49357Y158689D01*
X48270Y158906D01*
D02*
G37*
G36*
X221906Y178730D02*
X217270D01*
Y174094D01*
X218357Y174310D01*
X220355Y175645D01*
X221689Y177643D01*
X221906Y178730D01*
D02*
G37*
G36*
X214730D02*
X210094D01*
X210310Y177643D01*
X211645Y175645D01*
X213643Y174310D01*
X214730Y174094D01*
Y178730D01*
D02*
G37*
G36*
X240230Y108730D02*
X231541D01*
X231718Y107379D01*
X232730Y104937D01*
X234339Y102839D01*
X236437Y101230D01*
X238879Y100218D01*
X240230Y100041D01*
Y108730D01*
D02*
G37*
G36*
X353406Y65230D02*
X348770D01*
Y60594D01*
X349857Y60810D01*
X351855Y62145D01*
X353190Y64143D01*
X353406Y65230D01*
D02*
G37*
G36*
X346230D02*
X341594D01*
X341810Y64143D01*
X343145Y62145D01*
X345143Y60810D01*
X346230Y60594D01*
Y65230D01*
D02*
G37*
G36*
X247406Y76730D02*
X235594D01*
X235810Y75643D01*
X237145Y73645D01*
X238943Y72445D01*
X239054Y71750D01*
X238943Y71055D01*
X237145Y69855D01*
X235810Y67857D01*
X235594Y66770D01*
X247406D01*
X247190Y67857D01*
X245855Y69855D01*
X244057Y71055D01*
X243946Y71750D01*
X244057Y72445D01*
X245855Y73645D01*
X247190Y75643D01*
X247406Y76730D01*
D02*
G37*
G36*
Y88730D02*
X235594D01*
X235810Y87643D01*
X237145Y85645D01*
X238480Y84754D01*
Y83246D01*
X237145Y82355D01*
X235810Y80357D01*
X235594Y79270D01*
X247406D01*
X247190Y80357D01*
X245855Y82355D01*
X244520Y83246D01*
Y84754D01*
X245855Y85645D01*
X247190Y87643D01*
X247406Y88730D01*
D02*
G37*
G36*
X353406Y76730D02*
X341594D01*
X341810Y75643D01*
X343145Y73645D01*
X344091Y73014D01*
Y71486D01*
X343145Y70855D01*
X341810Y68857D01*
X341594Y67770D01*
X353406D01*
X353190Y68857D01*
X351855Y70855D01*
X350909Y71486D01*
Y73014D01*
X351855Y73645D01*
X353190Y75643D01*
X353406Y76730D01*
D02*
G37*
G36*
X247406Y64230D02*
X242770D01*
Y59594D01*
X243857Y59811D01*
X245855Y61145D01*
X247190Y63143D01*
X247406Y64230D01*
D02*
G37*
G36*
X133000Y47338D02*
X129422Y46986D01*
X125982Y45942D01*
X122812Y44248D01*
X120033Y41967D01*
X117752Y39188D01*
X116058Y36018D01*
X115014Y32578D01*
X114662Y29000D01*
X115014Y25422D01*
X116058Y21982D01*
X117752Y18812D01*
X120033Y16033D01*
X122812Y13752D01*
X125982Y12058D01*
X129422Y11014D01*
X133000Y10662D01*
X136578Y11014D01*
X140018Y12058D01*
X143188Y13752D01*
X145967Y16033D01*
X148248Y18812D01*
X149942Y21982D01*
X150986Y25422D01*
X151338Y29000D01*
X150986Y32578D01*
X149942Y36018D01*
X148248Y39188D01*
X145967Y41967D01*
X143188Y44248D01*
X140018Y45942D01*
X136578Y46986D01*
X133000Y47338D01*
D02*
G37*
G36*
X31000D02*
X27422Y46986D01*
X23982Y45942D01*
X20812Y44248D01*
X18033Y41967D01*
X15752Y39188D01*
X14058Y36018D01*
X13014Y32578D01*
X12662Y29000D01*
X13014Y25422D01*
X14058Y21982D01*
X15752Y18812D01*
X18033Y16033D01*
X20812Y13752D01*
X23982Y12058D01*
X27422Y11014D01*
X31000Y10662D01*
X34578Y11014D01*
X38018Y12058D01*
X41188Y13752D01*
X43967Y16033D01*
X46248Y18812D01*
X47942Y21982D01*
X48986Y25422D01*
X49338Y29000D01*
X48986Y32578D01*
X47942Y36018D01*
X46248Y39188D01*
X43967Y41967D01*
X41188Y44248D01*
X38018Y45942D01*
X34578Y46986D01*
X31000Y47338D01*
D02*
G37*
G36*
X286000Y69500D02*
X267000D01*
Y50500D01*
X286000D01*
Y69500D01*
D02*
G37*
G36*
X240230Y64230D02*
X235594D01*
X235810Y63143D01*
X237145Y61145D01*
X239143Y59811D01*
X240230Y59594D01*
Y64230D01*
D02*
G37*
G36*
X392000Y69500D02*
X373000D01*
Y50500D01*
X392000D01*
Y69500D01*
D02*
G37*
G36*
X346230Y95906D02*
X345143Y95689D01*
X343145Y94355D01*
X341810Y92357D01*
X341594Y91270D01*
X346230D01*
Y95906D01*
D02*
G37*
G36*
X242770D02*
Y91270D01*
X247406D01*
X247190Y92357D01*
X245855Y94355D01*
X243857Y95689D01*
X242770Y95906D01*
D02*
G37*
G36*
X348770D02*
Y91270D01*
X353406D01*
X353190Y92357D01*
X351855Y94355D01*
X349857Y95689D01*
X348770Y95906D01*
D02*
G37*
G36*
X76770Y102459D02*
Y93770D01*
X85459D01*
X85282Y95121D01*
X84270Y97563D01*
X82661Y99661D01*
X80563Y101270D01*
X78121Y102282D01*
X76770Y102459D01*
D02*
G37*
G36*
X74230D02*
X72879Y102282D01*
X70437Y101270D01*
X68339Y99661D01*
X66730Y97563D01*
X65718Y95121D01*
X65541Y93770D01*
X74230D01*
Y102459D01*
D02*
G37*
G36*
X240230Y95906D02*
X239143Y95689D01*
X237145Y94355D01*
X235810Y92357D01*
X235594Y91270D01*
X240230D01*
Y95906D01*
D02*
G37*
G36*
X74230Y91230D02*
X65541D01*
X65718Y89879D01*
X66730Y87437D01*
X68339Y85339D01*
X70437Y83730D01*
X72879Y82718D01*
X74230Y82541D01*
Y91230D01*
D02*
G37*
G36*
X353406Y88730D02*
X341594D01*
X341810Y87643D01*
X343145Y85645D01*
X344480Y84754D01*
Y83246D01*
X343145Y82355D01*
X341810Y80357D01*
X341594Y79270D01*
X353406D01*
X353190Y80357D01*
X351855Y82355D01*
X350520Y83246D01*
Y84754D01*
X351855Y85645D01*
X353190Y87643D01*
X353406Y88730D01*
D02*
G37*
G36*
X85459Y91230D02*
X76770D01*
Y82541D01*
X78121Y82718D01*
X80563Y83730D01*
X82661Y85339D01*
X84270Y87437D01*
X85282Y89879D01*
X85459Y91230D01*
D02*
G37*
G36*
X101250Y102082D02*
X98770Y101755D01*
X96459Y100798D01*
X94474Y99275D01*
X92952Y97291D01*
X91994Y94980D01*
X91668Y92500D01*
X91994Y90020D01*
X92952Y87709D01*
X94474Y85724D01*
X96459Y84202D01*
X98770Y83244D01*
X101250Y82918D01*
X103730Y83244D01*
X106041Y84202D01*
X108025Y85724D01*
X109548Y87709D01*
X110505Y90020D01*
X110832Y92500D01*
X110505Y94980D01*
X109548Y97291D01*
X108025Y99275D01*
X106041Y100798D01*
X103730Y101755D01*
X101250Y102082D01*
D02*
G37*
G36*
X50000D02*
X47520Y101755D01*
X45209Y100798D01*
X43225Y99275D01*
X41702Y97291D01*
X40745Y94980D01*
X40418Y92500D01*
X40745Y90020D01*
X41702Y87709D01*
X43225Y85724D01*
X45209Y84202D01*
X47520Y83244D01*
X50000Y82918D01*
X52480Y83244D01*
X54791Y84202D01*
X56775Y85724D01*
X58298Y87709D01*
X59255Y90020D01*
X59582Y92500D01*
X59255Y94980D01*
X58298Y97291D01*
X56775Y99275D01*
X54791Y100798D01*
X52480Y101755D01*
X50000Y102082D01*
D02*
G37*
G36*
X264000Y459104D02*
X260867Y458691D01*
X257948Y457482D01*
X255441Y455559D01*
X253518Y453052D01*
X252309Y450133D01*
X251896Y447000D01*
X252309Y443867D01*
X253518Y440948D01*
X253563Y440889D01*
X150837Y338163D01*
X150174Y337170D01*
X149941Y336000D01*
X149941Y336000D01*
Y206294D01*
X148671Y205909D01*
X147965Y206965D01*
X147059Y207571D01*
Y381733D01*
X204034Y438708D01*
X205301Y438625D01*
X205441Y438442D01*
X207948Y436518D01*
X210867Y435309D01*
X214000Y434896D01*
X217133Y435309D01*
X220052Y436518D01*
X222558Y438442D01*
X224482Y440948D01*
X225691Y443867D01*
X226104Y447000D01*
X225691Y450133D01*
X224482Y453052D01*
X222558Y455559D01*
X220052Y457482D01*
X217133Y458691D01*
X214000Y459104D01*
X210867Y458691D01*
X207948Y457482D01*
X205441Y455559D01*
X203518Y453052D01*
X202309Y450133D01*
X201896Y447000D01*
X202103Y445429D01*
X141837Y385163D01*
X141174Y384170D01*
X140941Y383000D01*
X140941Y383000D01*
Y207571D01*
X140035Y206965D01*
X138819Y205146D01*
X138392Y203000D01*
X138819Y200854D01*
X140035Y199035D01*
X141854Y197819D01*
X144000Y197392D01*
X146146Y197819D01*
X147965Y199035D01*
X148671Y200091D01*
X149819Y199743D01*
X149864Y198519D01*
X149035Y197965D01*
X147819Y196146D01*
X147392Y194000D01*
X147819Y191854D01*
X149035Y190035D01*
X150854Y188819D01*
X153000Y188392D01*
X155146Y188819D01*
X156965Y190035D01*
X158181Y191854D01*
X158608Y194000D01*
X158181Y196146D01*
X156965Y197965D01*
X156059Y198571D01*
Y334733D01*
X257889Y436563D01*
X257948Y436518D01*
X260867Y435309D01*
X264000Y434896D01*
X267133Y435309D01*
X270052Y436518D01*
X272558Y438442D01*
X274482Y440948D01*
X275691Y443867D01*
X276104Y447000D01*
X275691Y450133D01*
X274482Y453052D01*
X272558Y455559D01*
X270052Y457482D01*
X267133Y458691D01*
X264000Y459104D01*
D02*
G37*
G36*
X176481Y445730D02*
X165270D01*
Y434519D01*
X167274Y434783D01*
X170324Y436046D01*
X172944Y438056D01*
X174954Y440676D01*
X176217Y443726D01*
X176481Y445730D01*
D02*
G37*
G36*
X162730Y459481D02*
X160726Y459217D01*
X157676Y457954D01*
X155056Y455944D01*
X153046Y453324D01*
X151783Y450274D01*
X151519Y448270D01*
X162730D01*
Y459481D01*
D02*
G37*
G36*
Y470730D02*
X158094D01*
X158310Y469643D01*
X159645Y467645D01*
X161643Y466310D01*
X162730Y466094D01*
Y470730D01*
D02*
G37*
G36*
X165270Y459481D02*
Y448270D01*
X176481D01*
X176217Y450274D01*
X174954Y453324D01*
X172944Y455944D01*
X170324Y457954D01*
X167274Y459217D01*
X165270Y459481D01*
D02*
G37*
G36*
X162730Y445730D02*
X151519D01*
X151783Y443726D01*
X153046Y440676D01*
X155056Y438056D01*
X157676Y436046D01*
X160726Y434783D01*
X162730Y434519D01*
Y445730D01*
D02*
G37*
G36*
X363730Y335906D02*
X362643Y335690D01*
X360645Y334355D01*
X359310Y332357D01*
X359094Y331270D01*
X363730D01*
Y335906D01*
D02*
G37*
G36*
X54906Y333330D02*
X50270D01*
Y328695D01*
X51357Y328911D01*
X53355Y330246D01*
X54690Y332244D01*
X54906Y333330D01*
D02*
G37*
G36*
X366270Y335906D02*
Y331270D01*
X370906D01*
X370690Y332357D01*
X369355Y334355D01*
X367357Y335690D01*
X366270Y335906D01*
D02*
G37*
G36*
X50270Y340506D02*
Y335871D01*
X54906D01*
X54690Y336957D01*
X53355Y338955D01*
X51357Y340290D01*
X50270Y340506D01*
D02*
G37*
G36*
X47730D02*
X46643Y340290D01*
X44645Y338955D01*
X43310Y336957D01*
X43094Y335871D01*
X47730D01*
Y340506D01*
D02*
G37*
G36*
X364730Y472730D02*
X360094D01*
X360311Y471643D01*
X361645Y469645D01*
X363643Y468310D01*
X364730Y468094D01*
Y472730D01*
D02*
G37*
G36*
X115906D02*
X111270D01*
Y468094D01*
X112357Y468310D01*
X114355Y469645D01*
X115690Y471643D01*
X115906Y472730D01*
D02*
G37*
G36*
X371906D02*
X367270D01*
Y468094D01*
X368357Y468310D01*
X370355Y469645D01*
X371690Y471643D01*
X371906Y472730D01*
D02*
G37*
G36*
X165270Y477906D02*
Y473270D01*
X169906D01*
X169690Y474357D01*
X168355Y476355D01*
X166357Y477690D01*
X165270Y477906D01*
D02*
G37*
G36*
X162730D02*
X161643Y477690D01*
X159645Y476355D01*
X158310Y474357D01*
X158094Y473270D01*
X162730D01*
Y477906D01*
D02*
G37*
G36*
X108730Y472730D02*
X104094D01*
X104311Y471643D01*
X105645Y469645D01*
X107643Y468310D01*
X108730Y468094D01*
Y472730D01*
D02*
G37*
G36*
X311730Y471730D02*
X307094D01*
X307311Y470643D01*
X308645Y468645D01*
X310643Y467310D01*
X311730Y467094D01*
Y471730D01*
D02*
G37*
G36*
X169906Y470730D02*
X165270D01*
Y466094D01*
X166357Y466310D01*
X168355Y467645D01*
X169690Y469643D01*
X169906Y470730D01*
D02*
G37*
G36*
X318906Y471730D02*
X314270D01*
Y467094D01*
X315357Y467310D01*
X317355Y468645D01*
X318690Y470643D01*
X318906Y471730D01*
D02*
G37*
G36*
X58906Y472730D02*
X54270D01*
Y468094D01*
X55357Y468310D01*
X57355Y469645D01*
X58689Y471643D01*
X58906Y472730D01*
D02*
G37*
G36*
X51730D02*
X47094D01*
X47310Y471643D01*
X48645Y469645D01*
X50643Y468310D01*
X51730Y468094D01*
Y472730D01*
D02*
G37*
G36*
X47730Y333330D02*
X43094D01*
X43310Y332244D01*
X44645Y330246D01*
X46643Y328911D01*
X47730Y328695D01*
Y333330D01*
D02*
G37*
G36*
X271906Y247730D02*
X267270D01*
Y243094D01*
X268357Y243311D01*
X270355Y244645D01*
X271690Y246643D01*
X271906Y247730D01*
D02*
G37*
G36*
X264730D02*
X260094D01*
X260310Y246643D01*
X261645Y244645D01*
X263643Y243311D01*
X264730Y243094D01*
Y247730D01*
D02*
G37*
G36*
X280730D02*
X276094D01*
X276310Y246643D01*
X277645Y244645D01*
X279643Y243311D01*
X280730Y243094D01*
Y247730D01*
D02*
G37*
G36*
X318730D02*
X314094D01*
X314310Y246643D01*
X315645Y244645D01*
X317643Y243311D01*
X318730Y243094D01*
Y247730D01*
D02*
G37*
G36*
X287906D02*
X283270D01*
Y243094D01*
X284357Y243311D01*
X286355Y244645D01*
X287689Y246643D01*
X287906Y247730D01*
D02*
G37*
G36*
X217270Y224906D02*
Y220270D01*
X221906D01*
X221689Y221357D01*
X220355Y223355D01*
X218357Y224690D01*
X217270Y224906D01*
D02*
G37*
G36*
Y210906D02*
Y206270D01*
X221906D01*
X221689Y207357D01*
X220355Y209355D01*
X218357Y210690D01*
X217270Y210906D01*
D02*
G37*
G36*
X214730D02*
X213643Y210690D01*
X211645Y209355D01*
X210310Y207357D01*
X210094Y206270D01*
X214730D01*
Y210906D01*
D02*
G37*
G36*
Y217730D02*
X210094D01*
X210310Y216643D01*
X211645Y214645D01*
X213643Y213310D01*
X214730Y213094D01*
Y217730D01*
D02*
G37*
G36*
Y224906D02*
X213643Y224690D01*
X211645Y223355D01*
X210310Y221357D01*
X210094Y220270D01*
X214730D01*
Y224906D01*
D02*
G37*
G36*
X221906Y217730D02*
X217270D01*
Y213094D01*
X218357Y213310D01*
X220355Y214645D01*
X221689Y216643D01*
X221906Y217730D01*
D02*
G37*
G36*
X18906Y270730D02*
X14270D01*
Y266094D01*
X15357Y266310D01*
X17355Y267645D01*
X18690Y269643D01*
X18906Y270730D01*
D02*
G37*
G36*
X321270Y254906D02*
Y250270D01*
X325906D01*
X325690Y251357D01*
X324355Y253355D01*
X322357Y254690D01*
X321270Y254906D01*
D02*
G37*
G36*
X14270Y277906D02*
Y273270D01*
X18906D01*
X18690Y274357D01*
X17355Y276355D01*
X15357Y277689D01*
X14270Y277906D01*
D02*
G37*
G36*
X370906Y328730D02*
X366270D01*
Y324094D01*
X367357Y324310D01*
X369355Y325645D01*
X370690Y327643D01*
X370906Y328730D01*
D02*
G37*
G36*
X363730D02*
X359094D01*
X359310Y327643D01*
X360645Y325645D01*
X362643Y324310D01*
X363730Y324094D01*
Y328730D01*
D02*
G37*
G36*
X318730Y254906D02*
X317643Y254690D01*
X315645Y253355D01*
X314310Y251357D01*
X314094Y250270D01*
X318730D01*
Y254906D01*
D02*
G37*
G36*
X264730D02*
X263643Y254690D01*
X261645Y253355D01*
X260310Y251357D01*
X260094Y250270D01*
X264730D01*
Y254906D01*
D02*
G37*
G36*
X325906Y247730D02*
X321270D01*
Y243094D01*
X322357Y243311D01*
X324355Y244645D01*
X325690Y246643D01*
X325906Y247730D01*
D02*
G37*
G36*
X267270Y254906D02*
Y250270D01*
X271906D01*
X271690Y251357D01*
X270355Y253355D01*
X268357Y254690D01*
X267270Y254906D01*
D02*
G37*
G36*
X283270D02*
Y250270D01*
X287906D01*
X287689Y251357D01*
X286355Y253355D01*
X284357Y254690D01*
X283270Y254906D01*
D02*
G37*
G36*
X280730D02*
X279643Y254690D01*
X277645Y253355D01*
X276310Y251357D01*
X276094Y250270D01*
X280730D01*
Y254906D01*
D02*
G37*
%LPD*%
D20*
X144000Y203000D02*
Y383000D01*
X208000Y447000D01*
X153000Y194000D02*
Y336000D01*
X264000Y447000D01*
D21*
X241500Y90000D02*
X347500D01*
X241500Y65500D02*
Y78000D01*
Y90000D01*
X347500Y66500D02*
Y78000D01*
Y90000D01*
X216000Y162000D02*
X241500Y136500D01*
Y90000D02*
Y110000D01*
Y136500D01*
X216000Y162000D02*
Y205000D01*
Y219000D01*
X215000Y231000D02*
X236000Y248000D01*
X215000Y231000D02*
X216000Y219000D01*
X13000Y187000D02*
X63500Y136500D01*
X13000Y187000D02*
Y198000D01*
Y299000D02*
Y457000D01*
Y198000D02*
Y272000D01*
Y299000D01*
X49000Y335000D01*
X13000Y457000D02*
X30000Y474000D01*
X53000D01*
X110000D01*
X366000D01*
X391000D01*
X320000Y248000D02*
X364000Y292000D01*
X236000Y248000D02*
X320000D01*
X63500Y136500D02*
X241500D01*
X364000Y292000D02*
Y355000D01*
D22*
X347500Y110000D02*
D03*
X241500D02*
D03*
X62750Y118000D02*
D03*
X88500D02*
D03*
X114000D02*
D03*
X101250Y92500D02*
D03*
X50000D02*
D03*
X75500D02*
D03*
D23*
X382500Y60000D02*
D03*
X276500D02*
D03*
D24*
X31000Y29000D02*
D03*
X133000D02*
D03*
D25*
X164000Y447000D02*
D03*
X264000D02*
D03*
X214000D02*
D03*
D26*
X347500Y66500D02*
D03*
Y78000D02*
D03*
Y90000D02*
D03*
X241500Y65500D02*
D03*
Y78000D02*
D03*
Y90000D02*
D03*
X216000Y205000D02*
D03*
Y219000D02*
D03*
Y180000D02*
D03*
X266000Y249000D02*
D03*
X320000D02*
D03*
X282000D02*
D03*
X13000Y198000D02*
D03*
X49000Y334600D02*
D03*
X13000Y272000D02*
D03*
X53000Y474000D02*
D03*
X110000D02*
D03*
X366000D02*
D03*
X313000Y473000D02*
D03*
X164000Y472000D02*
D03*
X144000Y203000D02*
D03*
X153000Y194000D02*
D03*
X365000Y330000D02*
D03*
X47000Y153000D02*
D03*
M02*
