%FSLAX44Y44*%
%MOMM*%
G71*
G01*
G75*
G04 Layer_Physical_Order=1*
G04 Layer_Color=255*
%ADD10R,0.6000X0.9000*%
%ADD11R,0.9000X0.6000*%
%ADD12R,1.3000X0.7000*%
%ADD13R,1.6800X1.5200*%
%ADD14R,2.0000X1.2000*%
%ADD15R,5.6000X5.6000*%
%ADD16R,5.5000X2.0000*%
%ADD17O,0.3000X1.5000*%
%ADD18R,0.3000X1.5000*%
%ADD19R,1.5000X0.3000*%
%ADD20C,0.2000*%
%ADD21C,1.0000*%
%ADD22C,1.5000*%
%ADD23R,1.5000X1.5000*%
%ADD24O,0.7500X0.7000*%
%ADD25C,2.0000*%
%ADD26C,0.7000*%
D10*
X169000Y319000D02*
D03*
X154000D02*
D03*
X169000Y306000D02*
D03*
X154000D02*
D03*
X142000Y325000D02*
D03*
X127000D02*
D03*
X102000Y325000D02*
D03*
X117000D02*
D03*
X279000Y264000D02*
D03*
X264000D02*
D03*
X115000Y150000D02*
D03*
X130000D02*
D03*
X78000Y147000D02*
D03*
X63000D02*
D03*
D11*
X298000Y249000D02*
D03*
Y264000D02*
D03*
X247000Y249000D02*
D03*
Y264000D02*
D03*
X237000Y229000D02*
D03*
Y214000D02*
D03*
X199000Y212000D02*
D03*
Y197000D02*
D03*
Y223500D02*
D03*
Y238500D02*
D03*
X36000Y206000D02*
D03*
Y221000D02*
D03*
Y253000D02*
D03*
Y238000D02*
D03*
X348000Y430000D02*
D03*
Y415000D02*
D03*
X394000Y430000D02*
D03*
Y415000D02*
D03*
X80000Y430000D02*
D03*
Y415000D02*
D03*
X29000Y430000D02*
D03*
Y415000D02*
D03*
D12*
X237000Y199000D02*
D03*
Y180000D02*
D03*
X13000Y255000D02*
D03*
Y236000D02*
D03*
X381000Y330000D02*
D03*
Y311000D02*
D03*
X394000Y449000D02*
D03*
Y468000D02*
D03*
X348000Y448000D02*
D03*
Y467000D02*
D03*
X80000Y448000D02*
D03*
Y467000D02*
D03*
X29000Y448000D02*
D03*
Y467000D02*
D03*
X338000Y248000D02*
D03*
Y267000D02*
D03*
X334000Y190000D02*
D03*
Y209000D02*
D03*
D13*
X381000Y180000D02*
D03*
Y213000D02*
D03*
X277000Y180000D02*
D03*
Y213000D02*
D03*
D14*
X343000Y342000D02*
D03*
Y298000D02*
D03*
D15*
X271000Y320000D02*
D03*
D16*
X170000Y356000D02*
D03*
X75000D02*
D03*
D17*
X80000Y173000D02*
D03*
D18*
X85000D02*
D03*
X90000D02*
D03*
X95000D02*
D03*
X100000D02*
D03*
X105000D02*
D03*
X110000D02*
D03*
X115000D02*
D03*
X120000D02*
D03*
X125000D02*
D03*
X130000D02*
D03*
X135000D02*
D03*
X140000D02*
D03*
X145000D02*
D03*
X150000D02*
D03*
X155000D02*
D03*
Y288000D02*
D03*
X150000D02*
D03*
X145000D02*
D03*
X140000D02*
D03*
X135000D02*
D03*
X130000D02*
D03*
X125000D02*
D03*
X120000D02*
D03*
X115000D02*
D03*
X110000D02*
D03*
X105000D02*
D03*
X100000D02*
D03*
X95000D02*
D03*
X90000D02*
D03*
X85000D02*
D03*
X80000D02*
D03*
D19*
X175000Y193000D02*
D03*
Y198000D02*
D03*
Y203000D02*
D03*
Y208000D02*
D03*
Y213000D02*
D03*
Y218000D02*
D03*
Y223000D02*
D03*
Y228000D02*
D03*
Y233000D02*
D03*
Y238000D02*
D03*
Y243000D02*
D03*
Y248000D02*
D03*
Y253000D02*
D03*
Y258000D02*
D03*
Y263000D02*
D03*
Y268000D02*
D03*
X60000D02*
D03*
Y263000D02*
D03*
Y258000D02*
D03*
Y253000D02*
D03*
Y248000D02*
D03*
Y243000D02*
D03*
Y238000D02*
D03*
Y233000D02*
D03*
Y228000D02*
D03*
Y223000D02*
D03*
Y218000D02*
D03*
Y213000D02*
D03*
Y208000D02*
D03*
Y203000D02*
D03*
Y198000D02*
D03*
Y193000D02*
D03*
D20*
X237000Y199000D02*
Y214000D01*
X50000Y92500D02*
X52099D01*
X29000Y430000D02*
Y448000D01*
X80000Y430000D02*
Y448000D01*
X348000Y430000D02*
Y448000D01*
X394000Y430000D02*
Y447000D01*
X261000Y229000D02*
X277000Y213000D01*
X237000Y229000D02*
X261000D01*
X13000Y236000D02*
X47000D01*
X59500Y233500D02*
X60000Y233000D01*
X49500Y233500D02*
X59500D01*
X47000Y236000D02*
X49500Y233500D01*
X109770Y164146D02*
Y172770D01*
X92624Y147000D02*
X109770Y164146D01*
X78000Y147000D02*
X92624D01*
X89000Y-279000D02*
X94000D01*
X130000Y288000D02*
Y300000D01*
X149000Y319000D01*
X154000D01*
X145000Y288000D02*
Y301000D01*
X150000Y306000D01*
X154000D01*
X158000Y356000D02*
X170000D01*
X127000Y325000D02*
X158000Y356000D01*
X86000D02*
X117000Y325000D01*
X142000Y325000D02*
Y326500D01*
X161500D02*
X169000Y319000D01*
X142000Y326500D02*
X161500D01*
X154000Y306000D02*
Y319000D01*
X169000Y306000D02*
Y319000D01*
X102000Y309242D02*
Y325000D01*
Y309242D02*
X114500Y296742D01*
Y288500D02*
Y296742D01*
X117000Y325000D02*
X119500Y322500D01*
Y288500D02*
Y322500D01*
X125500Y323500D02*
X127000Y325000D01*
X125500Y288500D02*
Y323500D01*
X125000Y288000D02*
X125500Y288500D01*
X145500D02*
Y296742D01*
X191000Y197000D02*
X199000D01*
X185500Y202500D02*
X191000Y197000D01*
X175500Y202500D02*
X185500D01*
X175500Y238500D02*
X199000D01*
Y212000D02*
Y223500D01*
X189000Y212000D02*
X199000D01*
X185500Y208500D02*
X189000Y212000D01*
X175500Y208500D02*
X185500D01*
X175000Y233000D02*
X189500D01*
X199000Y223500D01*
Y212000D02*
X209000D01*
X216000Y205000D01*
X199000Y223500D02*
X211500D01*
X216000Y219000D01*
Y180000D02*
X237000D01*
X216000D02*
X217000Y181000D01*
X245257Y249000D02*
X247000D01*
X218692Y198500D02*
X225000Y204808D01*
Y255000D01*
X234000Y264000D01*
X247000D01*
X321000Y248000D02*
X338000D01*
X247000Y249000D02*
X266000D01*
X282000D02*
X298000D01*
X163000Y238000D02*
X175000D01*
X144000Y257000D02*
X163000Y238000D01*
X60000Y228000D02*
X115000D01*
X125000Y238000D01*
X125000Y173000D02*
Y217000D01*
X145000Y258000D02*
Y288000D01*
X130000Y254000D02*
Y288000D01*
Y254000D02*
X135500Y248500D01*
X43000Y228000D02*
X60000D01*
X36000Y221000D02*
X43000Y228000D01*
X13000Y255000D02*
X34000D01*
X36000Y253000D01*
X21000Y206000D02*
X36000D01*
X13000Y198000D02*
X21000Y206000D01*
X13000Y255000D02*
Y273000D01*
X59500Y258500D02*
X60000Y258000D01*
X377000Y398000D02*
X394000Y415000D01*
X51000Y398000D02*
X377000D01*
X30000Y377000D02*
X51000Y398000D01*
X30000Y336000D02*
Y377000D01*
Y336000D02*
X52000Y314000D01*
X81000D01*
X90000Y305000D01*
Y288000D02*
Y305000D01*
X336000Y403000D02*
X348000Y415000D01*
X49000Y403000D02*
X336000D01*
X26000Y380000D02*
X49000Y403000D01*
X72000Y407000D02*
X80000Y415000D01*
X47343Y407000D02*
X72000D01*
X22000Y381657D02*
X47343Y407000D01*
X22000Y285000D02*
Y381657D01*
X44000Y263000D02*
X60000D01*
X29000Y394314D02*
Y415000D01*
X18000Y383314D02*
X29000Y394314D01*
X18000Y283343D02*
Y383314D01*
Y283343D02*
X42843Y258500D01*
X59500D01*
X334000Y123500D02*
Y190000D01*
Y123500D02*
X347500Y110000D01*
X29000Y467000D02*
X46000D01*
X53000Y474000D01*
X80000Y467000D02*
X102000D01*
X109000Y474000D01*
X319000Y467000D02*
X348000D01*
X313000Y473000D02*
X319000Y467000D01*
X371000Y468000D02*
X394000D01*
X366000Y473000D02*
X371000Y468000D01*
X164000Y447000D02*
Y472000D01*
X144000Y203000D02*
X175000D01*
X145000Y173000D02*
Y186000D01*
X152000Y193000D01*
X103349Y92500D02*
X150000Y139151D01*
Y173000D01*
X101250Y92500D02*
X103349D01*
X103500D01*
X90750Y88151D02*
X96901Y82000D01*
X105599D01*
X154500Y130901D01*
Y172500D01*
X155000Y173000D01*
X39500Y88151D02*
X45651Y82000D01*
X39500Y88151D02*
Y144864D01*
X78136Y183500D01*
X117743D01*
X119500Y181743D01*
X120000Y155000D02*
Y164500D01*
X115000Y150000D02*
X120000Y155000D01*
X119500Y164500D02*
Y181743D01*
Y164500D02*
X120000D01*
X130000Y150000D02*
Y159757D01*
X125500Y164257D02*
X130000Y159757D01*
X125500Y164257D02*
Y172500D01*
X125000Y173000D02*
X125500Y172500D01*
X90750Y88151D02*
Y118000D01*
X88500D02*
X90750D01*
X62750D02*
Y146750D01*
X72000Y141257D02*
Y146750D01*
Y141257D02*
X73757Y139500D01*
X119500D01*
X130000Y150000D01*
X62750Y146750D02*
X72000D01*
X50000Y92500D02*
Y145743D01*
X58757Y154500D01*
X69907D01*
X76000Y148407D01*
Y145000D02*
X78000Y147000D01*
X76000Y145000D02*
Y148407D01*
X45651Y82000D02*
X65000D01*
X75500Y92500D01*
X199000Y197000D02*
X200500Y198500D01*
X218692D01*
X22000Y285000D02*
X44000Y263000D01*
X26000Y289000D02*
Y380000D01*
Y289000D02*
X47000Y268000D01*
X60000D01*
D21*
X381000Y61500D02*
Y180000D01*
X276500Y60000D02*
Y179500D01*
X241500Y65500D02*
Y78000D01*
Y90000D01*
Y110000D01*
X347500Y66500D02*
Y78000D01*
Y90000D01*
Y110000D01*
X345000Y298000D02*
X381000Y262000D01*
X277000Y227000D02*
X278000Y228000D01*
X277000Y213000D02*
Y227000D01*
X381000Y213000D02*
Y228000D01*
Y262000D01*
X334000Y228000D02*
X381000D01*
X278000D02*
X334000D01*
Y209000D02*
Y228000D01*
X279000Y264000D02*
Y312000D01*
X247000Y264000D02*
X264000D01*
X356000Y311000D02*
X381000D01*
X343000Y298000D02*
X356000Y311000D01*
X58601Y325000D02*
X102000D01*
X40500Y343101D02*
Y372700D01*
X53800Y386000D01*
X192000D01*
X206000Y372000D01*
X204500Y370500D02*
X206000Y372000D01*
X204500Y341500D02*
Y370500D01*
X169000Y319000D02*
X182000D01*
X204500Y341500D01*
X282000Y267000D02*
X338000D01*
X207000Y320000D02*
X271000D01*
X125000Y217000D02*
Y238000D01*
X144000Y257000D02*
X145000Y258000D01*
X207000Y320000D01*
X125000Y238000D02*
X135500Y248500D01*
X144000Y257000D01*
X40500Y343101D02*
X58601Y325000D01*
X365000Y330000D02*
X381000D01*
Y340000D01*
X379000Y342000D02*
X381000Y340000D01*
X343000Y342000D02*
X379000D01*
D22*
X347500Y110000D02*
D03*
X241500D02*
D03*
X62750Y118000D02*
D03*
X88500D02*
D03*
X114000D02*
D03*
X101250Y92500D02*
D03*
X50000D02*
D03*
X75500D02*
D03*
D23*
X382500Y60000D02*
D03*
X276500D02*
D03*
D24*
X31000Y29000D02*
D03*
X133000D02*
D03*
D25*
X164000Y447000D02*
D03*
X264000D02*
D03*
X214000D02*
D03*
D26*
X347500Y66500D02*
D03*
Y78000D02*
D03*
Y90000D02*
D03*
X241500Y65500D02*
D03*
Y78000D02*
D03*
Y90000D02*
D03*
X216000Y205000D02*
D03*
Y219000D02*
D03*
Y180000D02*
D03*
X266000Y249000D02*
D03*
X320000D02*
D03*
X282000D02*
D03*
X13000Y198000D02*
D03*
X49000Y334600D02*
D03*
X13000Y272000D02*
D03*
X53000Y474000D02*
D03*
X110000D02*
D03*
X366000D02*
D03*
X313000Y473000D02*
D03*
X164000Y472000D02*
D03*
X144000Y203000D02*
D03*
X153000Y194000D02*
D03*
X365000Y330000D02*
D03*
X47000Y153000D02*
D03*
M02*
